  0
SECTION
  2
HEADER
  9
$ACADVER
  1
AC1009
  0
ENDSEC
  0
SECTION
  2
ENTITIES
  0
POLYLINE
  5
90
  8
Layer_0
  62
0
  70
1
  66
1
  10
0
  20
0
  30
0
  0
VERTEX
  5
90
  8
Layer_0
  10
502.64981
  20
252.79486
  0
VERTEX
  5
91
  8
Layer_0
  10
502.62747
  20
253.01656
  0
VERTEX
  5
92
  8
Layer_0
  10
502.56335
  20
253.22304
  0
VERTEX
  5
93
  8
Layer_0
  10
502.46198
  20
253.4099
  0
VERTEX
  5
94
  8
Layer_0
  10
502.32764
  20
253.57269
  0
VERTEX
  5
95
  8
Layer_0
  10
502.16486
  20
253.70702
  0
VERTEX
  5
96
  8
Layer_0
  10
501.97797
  20
253.80843
  0
VERTEX
  5
97
  8
Layer_0
  10
501.77148
  20
253.87253
  0
VERTEX
  5
98
  8
Layer_0
  10
501.5498
  20
253.89487
  0
VERTEX
  5
99
  8
Layer_0
  10
501.32813
  20
253.87253
  0
VERTEX
  5
9a
  8
Layer_0
  10
501.12164
  20
253.80843
  0
VERTEX
  5
9b
  8
Layer_0
  10
500.93475
  20
253.70702
  0
VERTEX
  5
9c
  8
Layer_0
  10
500.77197
  20
253.57269
  0
VERTEX
  5
9d
  8
Layer_0
  10
500.63763
  20
253.4099
  0
VERTEX
  5
9e
  8
Layer_0
  10
500.53625
  20
253.22304
  0
VERTEX
  5
9f
  8
Layer_0
  10
500.47214
  20
253.01656
  0
VERTEX
  5
a0
  8
Layer_0
  10
500.4498
  20
252.79486
  0
VERTEX
  5
a1
  8
Layer_0
  10
500.47214
  20
252.57317
  0
VERTEX
  5
a2
  8
Layer_0
  10
500.53625
  20
252.36668
  0
VERTEX
  5
a3
  8
Layer_0
  10
500.63763
  20
252.17982
  0
VERTEX
  5
a4
  8
Layer_0
  10
500.77197
  20
252.01703
  0
VERTEX
  5
a5
  8
Layer_0
  10
500.93475
  20
251.88271
  0
VERTEX
  5
a6
  8
Layer_0
  10
501.12164
  20
251.7813
  0
VERTEX
  5
a7
  8
Layer_0
  10
501.32813
  20
251.71719
  0
VERTEX
  5
a8
  8
Layer_0
  10
501.5498
  20
251.69485
  0
VERTEX
  5
a9
  8
Layer_0
  10
501.77148
  20
251.71719
  0
VERTEX
  5
aa
  8
Layer_0
  10
501.97797
  20
251.7813
  0
VERTEX
  5
ab
  8
Layer_0
  10
502.16486
  20
251.88271
  0
VERTEX
  5
ac
  8
Layer_0
  10
502.32764
  20
252.01703
  0
VERTEX
  5
ad
  8
Layer_0
  10
502.46198
  20
252.17982
  0
VERTEX
  5
ae
  8
Layer_0
  10
502.56335
  20
252.36668
  0
VERTEX
  5
af
  8
Layer_0
  10
502.62747
  20
252.57317
  0
VERTEX
  5
b0
  8
Layer_0
  10
502.64981
  20
252.79486
  0
SEQEND
  0
POLYLINE
  5
b2
  8
Layer_0
  62
0
  66
1
  10
0
  20
0
  30
0
  0
VERTEX
  5
b2
  8
Layer_0
  10
505.54776
  20
253.48599
  0
VERTEX
  5
b3
  8
Layer_0
  10
505.54776
  20
233.35394
  0
SEQEND
  0
POLYLINE
  5
b5
  8
Layer_0
  62
0
  70
1
  66
1
  10
0
  20
0
  30
0
  0
VERTEX
  5
b5
  8
Layer_0
  10
502.64981
  20
234.04483
  0
VERTEX
  5
b6
  8
Layer_0
  10
502.62747
  20
234.26654
  0
VERTEX
  5
b7
  8
Layer_0
  10
502.56335
  20
234.47302
  0
VERTEX
  5
b8
  8
Layer_0
  10
502.46198
  20
234.65985
  0
VERTEX
  5
b9
  8
Layer_0
  10
502.32764
  20
234.82266
  0
VERTEX
  5
ba
  8
Layer_0
  10
502.16486
  20
234.95697
  0
VERTEX
  5
bb
  8
Layer_0
  10
501.97797
  20
235.05841
  0
VERTEX
  5
bc
  8
Layer_0
  10
501.77148
  20
235.1225
  0
VERTEX
  5
bd
  8
Layer_0
  10
501.5498
  20
235.14484
  0
VERTEX
  5
be
  8
Layer_0
  10
501.32813
  20
235.1225
  0
VERTEX
  5
bf
  8
Layer_0
  10
501.12164
  20
235.05841
  0
VERTEX
  5
c0
  8
Layer_0
  10
500.93475
  20
234.95697
  0
VERTEX
  5
c1
  8
Layer_0
  10
500.77197
  20
234.82266
  0
VERTEX
  5
c2
  8
Layer_0
  10
500.63763
  20
234.65985
  0
VERTEX
  5
c3
  8
Layer_0
  10
500.53625
  20
234.47302
  0
VERTEX
  5
c4
  8
Layer_0
  10
500.47214
  20
234.26654
  0
VERTEX
  5
c5
  8
Layer_0
  10
500.4498
  20
234.04483
  0
VERTEX
  5
c6
  8
Layer_0
  10
500.47214
  20
233.82312
  0
VERTEX
  5
c7
  8
Layer_0
  10
500.53625
  20
233.61664
  0
VERTEX
  5
c8
  8
Layer_0
  10
500.63763
  20
233.42981
  0
VERTEX
  5
c9
  8
Layer_0
  10
500.77197
  20
233.267
  0
VERTEX
  5
ca
  8
Layer_0
  10
500.93475
  20
233.13269
  0
VERTEX
  5
cb
  8
Layer_0
  10
501.12164
  20
233.03125
  0
VERTEX
  5
cc
  8
Layer_0
  10
501.32813
  20
232.96716
  0
VERTEX
  5
cd
  8
Layer_0
  10
501.5498
  20
232.94482
  0
VERTEX
  5
ce
  8
Layer_0
  10
501.77148
  20
232.96716
  0
VERTEX
  5
cf
  8
Layer_0
  10
501.97797
  20
233.03125
  0
VERTEX
  5
d0
  8
Layer_0
  10
502.16486
  20
233.13269
  0
VERTEX
  5
d1
  8
Layer_0
  10
502.32764
  20
233.267
  0
VERTEX
  5
d2
  8
Layer_0
  10
502.46198
  20
233.42981
  0
VERTEX
  5
d3
  8
Layer_0
  10
502.56335
  20
233.61664
  0
VERTEX
  5
d4
  8
Layer_0
  10
502.62747
  20
233.82312
  0
VERTEX
  5
d5
  8
Layer_0
  10
502.64981
  20
234.04483
  0
SEQEND
  0
POLYLINE
  5
d7
  8
Layer_0
  62
0
  70
1
  66
1
  10
0
  20
0
  30
0
  0
VERTEX
  5
d7
  8
Layer_0
  10
354.20001
  20
234.04483
  0
VERTEX
  5
d8
  8
Layer_0
  10
354.17767
  20
234.26654
  0
VERTEX
  5
d9
  8
Layer_0
  10
354.11359
  20
234.47302
  0
VERTEX
  5
da
  8
Layer_0
  10
354.01215
  20
234.65985
  0
VERTEX
  5
db
  8
Layer_0
  10
353.87784
  20
234.82266
  0
VERTEX
  5
dc
  8
Layer_0
  10
353.71503
  20
234.95697
  0
VERTEX
  5
dd
  8
Layer_0
  10
353.5282
  20
235.05841
  0
VERTEX
  5
de
  8
Layer_0
  10
353.32172
  20
235.1225
  0
VERTEX
  5
df
  8
Layer_0
  10
353.10001
  20
235.14484
  0
VERTEX
  5
e0
  8
Layer_0
  10
352.8783
  20
235.1225
  0
VERTEX
  5
e1
  8
Layer_0
  10
352.67181
  20
235.05841
  0
VERTEX
  5
e2
  8
Layer_0
  10
352.48499
  20
234.95697
  0
VERTEX
  5
e3
  8
Layer_0
  10
352.32217
  20
234.82266
  0
VERTEX
  5
e4
  8
Layer_0
  10
352.18787
  20
234.65985
  0
VERTEX
  5
e5
  8
Layer_0
  10
352.08643
  20
234.47302
  0
VERTEX
  5
e6
  8
Layer_0
  10
352.02234
  20
234.26654
  0
VERTEX
  5
e7
  8
Layer_0
  10
352
  20
234.04483
  0
VERTEX
  5
e8
  8
Layer_0
  10
352.02234
  20
233.82312
  0
VERTEX
  5
e9
  8
Layer_0
  10
352.08643
  20
233.61664
  0
VERTEX
  5
ea
  8
Layer_0
  10
352.18787
  20
233.42981
  0
VERTEX
  5
eb
  8
Layer_0
  10
352.32217
  20
233.267
  0
VERTEX
  5
ec
  8
Layer_0
  10
352.48499
  20
233.13269
  0
VERTEX
  5
ed
  8
Layer_0
  10
352.67181
  20
233.03125
  0
VERTEX
  5
ee
  8
Layer_0
  10
352.8783
  20
232.96716
  0
VERTEX
  5
ef
  8
Layer_0
  10
353.10001
  20
232.94482
  0
VERTEX
  5
f0
  8
Layer_0
  10
353.32172
  20
232.96716
  0
VERTEX
  5
f1
  8
Layer_0
  10
353.5282
  20
233.03125
  0
VERTEX
  5
f2
  8
Layer_0
  10
353.71503
  20
233.13269
  0
VERTEX
  5
f3
  8
Layer_0
  10
353.87784
  20
233.267
  0
VERTEX
  5
f4
  8
Layer_0
  10
354.01215
  20
233.42981
  0
VERTEX
  5
f5
  8
Layer_0
  10
354.11359
  20
233.61664
  0
VERTEX
  5
f6
  8
Layer_0
  10
354.17767
  20
233.82312
  0
VERTEX
  5
f7
  8
Layer_0
  10
354.20001
  20
234.04483
  0
SEQEND
  0
POLYLINE
  5
f9
  8
Layer_0
  62
0
  70
1
  66
1
  10
0
  20
0
  30
0
  0
VERTEX
  5
f9
  8
Layer_0
  10
205.75299
  20
252.79181
  0
VERTEX
  5
fa
  8
Layer_0
  10
205.73065
  20
253.0135
  0
VERTEX
  5
fb
  8
Layer_0
  10
205.66656
  20
253.21999
  0
VERTEX
  5
fc
  8
Layer_0
  10
205.56512
  20
253.40685
  0
VERTEX
  5
fd
  8
Layer_0
  10
205.43082
  20
253.56964
  0
VERTEX
  5
fe
  8
Layer_0
  10
205.26801
  20
253.70396
  0
VERTEX
  5
ff
  8
Layer_0
  10
205.08118
  20
253.80537
  0
VERTEX
  5
100
  8
Layer_0
  10
204.87469
  20
253.86948
  0
VERTEX
  5
101
  8
Layer_0
  10
204.65298
  20
253.89182
  0
VERTEX
  5
102
  8
Layer_0
  10
204.43127
  20
253.86948
  0
VERTEX
  5
103
  8
Layer_0
  10
204.22479
  20
253.80537
  0
VERTEX
  5
104
  8
Layer_0
  10
204.03796
  20
253.70396
  0
VERTEX
  5
105
  8
Layer_0
  10
203.87515
  20
253.56964
  0
VERTEX
  5
106
  8
Layer_0
  10
203.74084
  20
253.40685
  0
VERTEX
  5
107
  8
Layer_0
  10
203.6394
  20
253.21999
  0
VERTEX
  5
108
  8
Layer_0
  10
203.57532
  20
253.0135
  0
VERTEX
  5
109
  8
Layer_0
  10
203.55298
  20
252.79181
  0
VERTEX
  5
10a
  8
Layer_0
  10
203.57532
  20
252.57011
  0
VERTEX
  5
10b
  8
Layer_0
  10
203.6394
  20
252.36363
  0
VERTEX
  5
10c
  8
Layer_0
  10
203.74084
  20
252.17677
  0
VERTEX
  5
10d
  8
Layer_0
  10
203.87515
  20
252.01398
  0
VERTEX
  5
10e
  8
Layer_0
  10
204.03796
  20
251.87965
  0
VERTEX
  5
10f
  8
Layer_0
  10
204.22479
  20
251.77824
  0
VERTEX
  5
110
  8
Layer_0
  10
204.43127
  20
251.71414
  0
VERTEX
  5
111
  8
Layer_0
  10
204.65298
  20
251.6918
  0
VERTEX
  5
112
  8
Layer_0
  10
204.87469
  20
251.71414
  0
VERTEX
  5
113
  8
Layer_0
  10
205.08118
  20
251.77824
  0
VERTEX
  5
114
  8
Layer_0
  10
205.26801
  20
251.87965
  0
VERTEX
  5
115
  8
Layer_0
  10
205.43082
  20
252.01398
  0
VERTEX
  5
116
  8
Layer_0
  10
205.56512
  20
252.17677
  0
VERTEX
  5
117
  8
Layer_0
  10
205.66656
  20
252.36363
  0
VERTEX
  5
118
  8
Layer_0
  10
205.73065
  20
252.57011
  0
VERTEX
  5
119
  8
Layer_0
  10
205.75299
  20
252.79181
  0
SEQEND
  0
POLYLINE
  5
11b
  8
Layer_0
  62
0
  66
1
  10
0
  20
0
  30
0
  0
VERTEX
  5
11b
  8
Layer_0
  10
203.96085
  20
230.04688
  0
VERTEX
  5
11c
  8
Layer_0
  10
502.24066
  20
230.04688
  0
SEQEND
  0
POLYLINE
  5
11e
  8
Layer_0
  62
0
  66
1
  10
0
  20
0
  30
0
  0
VERTEX
  5
11e
  8
Layer_0
  10
203.96085
  20
256.79309
  0
VERTEX
  5
11f
  8
Layer_0
  10
502.24066
  20
256.79309
  0
SEQEND
  0
POLYLINE
  5
121
  8
Layer_0
  62
0
  66
1
  10
0
  20
0
  30
0
  0
VERTEX
  5
121
  8
Layer_0
  10
502.24319
  20
230.04483
  0
VERTEX
  5
122
  8
Layer_0
  10
502.57007
  20
230.06104
  0
VERTEX
  5
123
  8
Layer_0
  10
502.89142
  20
230.10895
  0
VERTEX
  5
124
  8
Layer_0
  10
503.20502
  20
230.18781
  0
VERTEX
  5
125
  8
Layer_0
  10
503.50879
  20
230.29657
  0
VERTEX
  5
126
  8
Layer_0
  10
503.80048
  20
230.43445
  0
VERTEX
  5
127
  8
Layer_0
  10
504.07797
  20
230.60046
  0
VERTEX
  5
128
  8
Layer_0
  10
504.33911
  20
230.79376
  0
VERTEX
  5
129
  8
Layer_0
  10
504.58167
  20
231.01346
  0
VERTEX
  5
12a
  8
Layer_0
  10
504.80136
  20
231.25604
  0
VERTEX
  5
12b
  8
Layer_0
  10
504.99466
  20
231.51715
  0
VERTEX
  5
12c
  8
Layer_0
  10
505.16071
  20
231.79468
  0
VERTEX
  5
12d
  8
Layer_0
  10
505.29858
  20
232.08636
  0
VERTEX
  5
12e
  8
Layer_0
  10
505.40735
  20
232.39014
  0
VERTEX
  5
12f
  8
Layer_0
  10
505.48618
  20
232.70374
  0
VERTEX
  5
130
  8
Layer_0
  10
505.53412
  20
233.02509
  0
VERTEX
  5
131
  8
Layer_0
  10
505.55029
  20
233.35193
  0
SEQEND
  0
POLYLINE
  5
133
  8
Layer_0
  62
0
  66
1
  10
0
  20
0
  30
0
  0
VERTEX
  5
133
  8
Layer_0
  10
200.65378
  20
233.35394
  0
VERTEX
  5
134
  8
Layer_0
  10
200.65378
  20
253.48599
  0
SEQEND
  0
POLYLINE
  5
136
  8
Layer_0
  62
0
  70
1
  66
1
  10
0
  20
0
  30
0
  0
VERTEX
  5
136
  8
Layer_0
  10
205.75299
  20
234.04178
  0
VERTEX
  5
137
  8
Layer_0
  10
205.73065
  20
234.26349
  0
VERTEX
  5
138
  8
Layer_0
  10
205.66656
  20
234.46997
  0
VERTEX
  5
139
  8
Layer_0
  10
205.56512
  20
234.6568
  0
VERTEX
  5
13a
  8
Layer_0
  10
205.43082
  20
234.81961
  0
VERTEX
  5
13b
  8
Layer_0
  10
205.26801
  20
234.95392
  0
VERTEX
  5
13c
  8
Layer_0
  10
205.08118
  20
235.05536
  0
VERTEX
  5
13d
  8
Layer_0
  10
204.87469
  20
235.11945
  0
VERTEX
  5
13e
  8
Layer_0
  10
204.65298
  20
235.14178
  0
VERTEX
  5
13f
  8
Layer_0
  10
204.43127
  20
235.11945
  0
VERTEX
  5
140
  8
Layer_0
  10
204.22479
  20
235.05536
  0
VERTEX
  5
141
  8
Layer_0
  10
204.03796
  20
234.95392
  0
VERTEX
  5
142
  8
Layer_0
  10
203.87515
  20
234.81961
  0
VERTEX
  5
143
  8
Layer_0
  10
203.74084
  20
234.6568
  0
VERTEX
  5
144
  8
Layer_0
  10
203.6394
  20
234.46997
  0
VERTEX
  5
145
  8
Layer_0
  10
203.57532
  20
234.26349
  0
VERTEX
  5
146
  8
Layer_0
  10
203.55298
  20
234.04178
  0
VERTEX
  5
147
  8
Layer_0
  10
203.57532
  20
233.82007
  0
VERTEX
  5
148
  8
Layer_0
  10
203.6394
  20
233.61359
  0
VERTEX
  5
149
  8
Layer_0
  10
203.74084
  20
233.42676
  0
VERTEX
  5
14a
  8
Layer_0
  10
203.87515
  20
233.26395
  0
VERTEX
  5
14b
  8
Layer_0
  10
204.03796
  20
233.12964
  0
VERTEX
  5
14c
  8
Layer_0
  10
204.22479
  20
233.0282
  0
VERTEX
  5
14d
  8
Layer_0
  10
204.43127
  20
232.96411
  0
VERTEX
  5
14e
  8
Layer_0
  10
204.65298
  20
232.94177
  0
VERTEX
  5
14f
  8
Layer_0
  10
204.87469
  20
232.96411
  0
VERTEX
  5
150
  8
Layer_0
  10
205.08118
  20
233.0282
  0
VERTEX
  5
151
  8
Layer_0
  10
205.26801
  20
233.12964
  0
VERTEX
  5
152
  8
Layer_0
  10
205.43082
  20
233.26395
  0
VERTEX
  5
153
  8
Layer_0
  10
205.56512
  20
233.42676
  0
VERTEX
  5
154
  8
Layer_0
  10
205.66656
  20
233.61359
  0
VERTEX
  5
155
  8
Layer_0
  10
205.73065
  20
233.82007
  0
VERTEX
  5
156
  8
Layer_0
  10
205.75299
  20
234.04178
  0
SEQEND
  0
POLYLINE
  5
158
  8
Layer_0
  62
0
  70
1
  66
1
  10
0
  20
0
  30
0
  0
VERTEX
  5
158
  8
Layer_0
  10
354.20001
  20
252.79486
  0
VERTEX
  5
159
  8
Layer_0
  10
354.17767
  20
253.01656
  0
VERTEX
  5
15a
  8
Layer_0
  10
354.11359
  20
253.22304
  0
VERTEX
  5
15b
  8
Layer_0
  10
354.01215
  20
253.4099
  0
VERTEX
  5
15c
  8
Layer_0
  10
353.87784
  20
253.57269
  0
VERTEX
  5
15d
  8
Layer_0
  10
353.71503
  20
253.70702
  0
VERTEX
  5
15e
  8
Layer_0
  10
353.5282
  20
253.80843
  0
VERTEX
  5
15f
  8
Layer_0
  10
353.32172
  20
253.87253
  0
VERTEX
  5
160
  8
Layer_0
  10
353.10001
  20
253.89487
  0
VERTEX
  5
161
  8
Layer_0
  10
352.8783
  20
253.87253
  0
VERTEX
  5
162
  8
Layer_0
  10
352.67181
  20
253.80843
  0
VERTEX
  5
163
  8
Layer_0
  10
352.48499
  20
253.70702
  0
VERTEX
  5
164
  8
Layer_0
  10
352.32217
  20
253.57269
  0
VERTEX
  5
165
  8
Layer_0
  10
352.18787
  20
253.4099
  0
VERTEX
  5
166
  8
Layer_0
  10
352.08643
  20
253.22304
  0
VERTEX
  5
167
  8
Layer_0
  10
352.02234
  20
253.01656
  0
VERTEX
  5
168
  8
Layer_0
  10
352
  20
252.79486
  0
VERTEX
  5
169
  8
Layer_0
  10
352.02234
  20
252.57317
  0
VERTEX
  5
16a
  8
Layer_0
  10
352.08643
  20
252.36668
  0
VERTEX
  5
16b
  8
Layer_0
  10
352.18787
  20
252.17982
  0
VERTEX
  5
16c
  8
Layer_0
  10
352.32217
  20
252.01703
  0
VERTEX
  5
16d
  8
Layer_0
  10
352.48499
  20
251.88271
  0
VERTEX
  5
16e
  8
Layer_0
  10
352.67181
  20
251.7813
  0
VERTEX
  5
16f
  8
Layer_0
  10
352.8783
  20
251.71719
  0
VERTEX
  5
170
  8
Layer_0
  10
353.10001
  20
251.69485
  0
VERTEX
  5
171
  8
Layer_0
  10
353.32172
  20
251.71719
  0
VERTEX
  5
172
  8
Layer_0
  10
353.5282
  20
251.7813
  0
VERTEX
  5
173
  8
Layer_0
  10
353.71503
  20
251.88271
  0
VERTEX
  5
174
  8
Layer_0
  10
353.87784
  20
252.01703
  0
VERTEX
  5
175
  8
Layer_0
  10
354.01215
  20
252.17982
  0
VERTEX
  5
176
  8
Layer_0
  10
354.11359
  20
252.36668
  0
VERTEX
  5
177
  8
Layer_0
  10
354.17767
  20
252.57317
  0
VERTEX
  5
178
  8
Layer_0
  10
354.20001
  20
252.79486
  0
SEQEND
  0
POLYLINE
  5
17a
  8
Layer_0
  62
0
  66
1
  10
0
  20
0
  30
0
  0
VERTEX
  5
17a
  8
Layer_0
  10
200.65607
  20
233.35193
  0
VERTEX
  5
17b
  8
Layer_0
  10
200.67224
  20
233.02502
  0
VERTEX
  5
17c
  8
Layer_0
  10
200.72021
  20
232.70367
  0
VERTEX
  5
17d
  8
Layer_0
  10
200.79901
  20
232.39008
  0
VERTEX
  5
17e
  8
Layer_0
  10
200.90778
  20
232.0863
  0
VERTEX
  5
17f
  8
Layer_0
  10
201.04565
  20
231.79462
  0
VERTEX
  5
180
  8
Layer_0
  10
201.21167
  20
231.51712
  0
VERTEX
  5
181
  8
Layer_0
  10
201.40497
  20
231.25601
  0
VERTEX
  5
182
  8
Layer_0
  10
201.62469
  20
231.01343
  0
VERTEX
  5
183
  8
Layer_0
  10
201.86725
  20
230.79376
  0
VERTEX
  5
184
  8
Layer_0
  10
202.12836
  20
230.60046
  0
VERTEX
  5
185
  8
Layer_0
  10
202.40588
  20
230.43445
  0
VERTEX
  5
186
  8
Layer_0
  10
202.69757
  20
230.29657
  0
VERTEX
  5
187
  8
Layer_0
  10
203.00134
  20
230.18781
  0
VERTEX
  5
188
  8
Layer_0
  10
203.31494
  20
230.10895
  0
VERTEX
  5
189
  8
Layer_0
  10
203.63629
  20
230.06104
  0
VERTEX
  5
18a
  8
Layer_0
  10
203.96313
  20
230.04483
  0
SEQEND
  0
POLYLINE
  5
18c
  8
Layer_0
  62
0
  66
1
  10
0
  20
0
  30
0
  0
VERTEX
  5
18c
  8
Layer_0
  10
505.55029
  20
253.48473
  0
VERTEX
  5
18d
  8
Layer_0
  10
505.53412
  20
253.8116
  0
VERTEX
  5
18e
  8
Layer_0
  10
505.48618
  20
254.13293
  0
VERTEX
  5
18f
  8
Layer_0
  10
505.40735
  20
254.44656
  0
VERTEX
  5
190
  8
Layer_0
  10
505.29855
  20
254.75032
  0
VERTEX
  5
191
  8
Layer_0
  10
505.16071
  20
255.04204
  0
VERTEX
  5
192
  8
Layer_0
  10
504.99466
  20
255.31952
  0
VERTEX
  5
193
  8
Layer_0
  10
504.80136
  20
255.58066
  0
VERTEX
  5
194
  8
Layer_0
  10
504.58167
  20
255.82321
  0
VERTEX
  5
195
  8
Layer_0
  10
504.33911
  20
256.04291
  0
VERTEX
  5
196
  8
Layer_0
  10
504.07797
  20
256.23621
  0
VERTEX
  5
197
  8
Layer_0
  10
503.80048
  20
256.40222
  0
VERTEX
  5
198
  8
Layer_0
  10
503.50879
  20
256.5401
  0
VERTEX
  5
199
  8
Layer_0
  10
503.20502
  20
256.64886
  0
VERTEX
  5
19a
  8
Layer_0
  10
502.89142
  20
256.72769
  0
VERTEX
  5
19b
  8
Layer_0
  10
502.57007
  20
256.77563
  0
VERTEX
  5
19c
  8
Layer_0
  10
502.24319
  20
256.79181
  0
SEQEND
  0
POLYLINE
  5
19e
  8
Layer_0
  62
0
  66
1
  10
0
  20
0
  30
0
  0
VERTEX
  5
19e
  8
Layer_0
  10
203.96313
  20
256.79181
  0
VERTEX
  5
19f
  8
Layer_0
  10
203.63629
  20
256.77563
  0
VERTEX
  5
1a0
  8
Layer_0
  10
203.31494
  20
256.72769
  0
VERTEX
  5
1a1
  8
Layer_0
  10
203.00134
  20
256.64886
  0
VERTEX
  5
1a2
  8
Layer_0
  10
202.69757
  20
256.54007
  0
VERTEX
  5
1a3
  8
Layer_0
  10
202.40588
  20
256.40222
  0
VERTEX
  5
1a4
  8
Layer_0
  10
202.12836
  20
256.23618
  0
VERTEX
  5
1a5
  8
Layer_0
  10
201.86725
  20
256.04288
  0
VERTEX
  5
1a6
  8
Layer_0
  10
201.62466
  20
255.82318
  0
VERTEX
  5
1a7
  8
Layer_0
  10
201.40497
  20
255.58063
  0
VERTEX
  5
1a8
  8
Layer_0
  10
201.21167
  20
255.31949
  0
VERTEX
  5
1a9
  8
Layer_0
  10
201.04565
  20
255.04201
  0
VERTEX
  5
1aa
  8
Layer_0
  10
200.90778
  20
254.75031
  0
VERTEX
  5
1ab
  8
Layer_0
  10
200.79901
  20
254.44655
  0
VERTEX
  5
1ac
  8
Layer_0
  10
200.72021
  20
254.13293
  0
VERTEX
  5
1ad
  8
Layer_0
  10
200.67224
  20
253.8116
  0
VERTEX
  5
1ae
  8
Layer_0
  10
200.65607
  20
253.48473
  0
SEQEND
  0
ENDSEC
  0
EOF
