%TF.GenerationSoftware,KiCad,Pcbnew,5.1.10-88a1d61d58~88~ubuntu21.04.1*%
%TF.CreationDate,2021-05-31T21:15:31+02:00*%
%TF.ProjectId,discipline-pcb,64697363-6970-46c6-996e-652d7063622e,rev?*%
%TF.SameCoordinates,Original*%
%TF.FileFunction,Soldermask,Bot*%
%TF.FilePolarity,Negative*%
%FSLAX46Y46*%
G04 Gerber Fmt 4.6, Leading zero omitted, Abs format (unit mm)*
G04 Created by KiCad (PCBNEW 5.1.10-88a1d61d58~88~ubuntu21.04.1) date 2021-05-31 21:15:31*
%MOMM*%
%LPD*%
G01*
G04 APERTURE LIST*
%TA.AperFunction,Profile*%
%ADD10C,0.150000*%
%TD*%
%ADD11C,2.302000*%
%ADD12C,4.102000*%
%ADD13C,1.802000*%
%ADD14C,4.502000*%
%ADD15C,3.152000*%
%ADD16O,1.702000X1.702000*%
%ADD17C,1.602000*%
%ADD18C,1.702000*%
%ADD19C,1.502000*%
%ADD20O,1.502000X1.502000*%
%ADD21C,1.302000*%
%ADD22C,1.902000*%
%ADD23O,0.752000X1.102000*%
%ADD24O,1.002000X2.502000*%
%ADD25O,1.002000X1.802000*%
%ADD26C,2.102000*%
%ADD27C,3.150000*%
%ADD28C,4.089800*%
%ADD29C,0.150000*%
G04 APERTURE END LIST*
D10*
X355353250Y-180502219D02*
X57076441Y-180502219D01*
X358660309Y-61001809D02*
X358660309Y-177195160D01*
X57073441Y-57694750D02*
X355353250Y-57694750D01*
X53766382Y-177198159D02*
X53766382Y-61001809D01*
X355353250Y-57694750D02*
G75*
G02*
X358660309Y-61001809I0J-3307059D01*
G01*
X358660309Y-177195160D02*
G75*
G02*
X355353250Y-180502219I-3307059J0D01*
G01*
X57076441Y-180502218D02*
G75*
G02*
X53766382Y-177198159I-3000J3307059D01*
G01*
X53766382Y-61001809D02*
G75*
G02*
X57073441Y-57694750I3307059J0D01*
G01*
X355353250Y-180502219D02*
X57076441Y-180502219D01*
X358660309Y-61001809D02*
X358660309Y-177195160D01*
X57073441Y-57694750D02*
X355353250Y-57694750D01*
X53766382Y-177198159D02*
X53766382Y-61001809D01*
X355353250Y-57694750D02*
G75*
G02*
X358660309Y-61001809I0J-3307059D01*
G01*
X358660309Y-177195160D02*
G75*
G02*
X355353250Y-180502219I-3307059J0D01*
G01*
X57076441Y-180502218D02*
G75*
G02*
X53766382Y-177198159I-3000J3307059D01*
G01*
X53766382Y-61001809D02*
G75*
G02*
X57073441Y-57694750I3307059J0D01*
G01*
D11*
X282604634Y-165883620D03*
X276254634Y-168423620D03*
D12*
X280064634Y-170963620D03*
D13*
X274984634Y-170963620D03*
X285144634Y-170963620D03*
D11*
X258792134Y-165883620D03*
X252442134Y-168423620D03*
D12*
X256252134Y-170963620D03*
D13*
X251172134Y-170963620D03*
X261332134Y-170963620D03*
D14*
X206215970Y-80451243D03*
X206215970Y-61699530D03*
D11*
X89693750Y-146843750D03*
X83343750Y-149383750D03*
D12*
X87153750Y-151923750D03*
D13*
X82073750Y-151923750D03*
X92233750Y-151923750D03*
D11*
X68262500Y-146843750D03*
X61912500Y-149383750D03*
D12*
X65722500Y-151923750D03*
D13*
X60642500Y-151923750D03*
X70802500Y-151923750D03*
D11*
X308768250Y-127793750D03*
X302418250Y-130333750D03*
D12*
X306228250Y-132873750D03*
D13*
X301148250Y-132873750D03*
X311308250Y-132873750D03*
D12*
X319418250Y-111453750D03*
D15*
X334658250Y-135253750D03*
X334658250Y-111453750D03*
D12*
X319418250Y-135253750D03*
D13*
X332738250Y-123353750D03*
X322578250Y-123353750D03*
D12*
X327658250Y-123353750D03*
D11*
X323848250Y-120813750D03*
X330198250Y-118273750D03*
D16*
X96672400Y-154279600D03*
G36*
G01*
X95872400Y-148348600D02*
X97472400Y-148348600D01*
G75*
G02*
X97523400Y-148399600I0J-51000D01*
G01*
X97523400Y-149999600D01*
G75*
G02*
X97472400Y-150050600I-51000J0D01*
G01*
X95872400Y-150050600D01*
G75*
G02*
X95821400Y-149999600I0J51000D01*
G01*
X95821400Y-148399600D01*
G75*
G02*
X95872400Y-148348600I51000J0D01*
G01*
G37*
G36*
G01*
X300553430Y-77240182D02*
X298953430Y-77240182D01*
G75*
G02*
X298902430Y-77189182I0J51000D01*
G01*
X298902430Y-75589182D01*
G75*
G02*
X298953430Y-75538182I51000J0D01*
G01*
X300553430Y-75538182D01*
G75*
G02*
X300604430Y-75589182I0J-51000D01*
G01*
X300604430Y-77189182D01*
G75*
G02*
X300553430Y-77240182I-51000J0D01*
G01*
G37*
X348013430Y-61149182D03*
X302293430Y-76389182D03*
X345473430Y-61149182D03*
X304833430Y-76389182D03*
X342933430Y-61149182D03*
X307373430Y-76389182D03*
X340393430Y-61149182D03*
X309913430Y-76389182D03*
X337853430Y-61149182D03*
X312453430Y-76389182D03*
X335313430Y-61149182D03*
X314993430Y-76389182D03*
X332773430Y-61149182D03*
X317533430Y-76389182D03*
X330233430Y-61149182D03*
X320073430Y-76389182D03*
X327693430Y-61149182D03*
X322613430Y-76389182D03*
X325153430Y-61149182D03*
X325153430Y-76389182D03*
X322613430Y-61149182D03*
X327693430Y-76389182D03*
X320073430Y-61149182D03*
X330233430Y-76389182D03*
X317533430Y-61149182D03*
X332773430Y-76389182D03*
X314993430Y-61149182D03*
X335313430Y-76389182D03*
X312453430Y-61149182D03*
X337853430Y-76389182D03*
X309913430Y-61149182D03*
X340393430Y-76389182D03*
X307373430Y-61149182D03*
X342933430Y-76389182D03*
X304833430Y-61149182D03*
X345473430Y-76389182D03*
X302293430Y-61149182D03*
X348013430Y-76389182D03*
X299753430Y-61149182D03*
D13*
X292280128Y-170973750D03*
X282120128Y-170973750D03*
D12*
X287200128Y-170973750D03*
D11*
X283390128Y-168433750D03*
X289740128Y-165893750D03*
D13*
X263723936Y-170973750D03*
X253563936Y-170973750D03*
D12*
X258643936Y-170973750D03*
D11*
X254833936Y-168433750D03*
X261183936Y-165893750D03*
X180207573Y-165901640D03*
X173857573Y-168441640D03*
D12*
X177667573Y-170981640D03*
D13*
X172587573Y-170981640D03*
X182747573Y-170981640D03*
X101783031Y-170969819D03*
X91623031Y-170969819D03*
D12*
X96703031Y-170969819D03*
D11*
X92893031Y-168429819D03*
X99243031Y-165889819D03*
D13*
X73183700Y-170963620D03*
X63023700Y-170963620D03*
D12*
X68103700Y-170963620D03*
D11*
X64293700Y-168423620D03*
X70643700Y-165883620D03*
X68262500Y-127783620D03*
X61912500Y-130323620D03*
D12*
X65722500Y-132863620D03*
D13*
X60642500Y-132863620D03*
X70802500Y-132863620D03*
G36*
G01*
X256194830Y-59500870D02*
X256194830Y-61200870D01*
G75*
G02*
X256143830Y-61251870I-51000J0D01*
G01*
X254443830Y-61251870D01*
G75*
G02*
X254392830Y-61200870I0J51000D01*
G01*
X254392830Y-59500870D01*
G75*
G02*
X254443830Y-59449870I51000J0D01*
G01*
X256143830Y-59449870D01*
G75*
G02*
X256194830Y-59500870I0J-51000D01*
G01*
G37*
X255293830Y-62890870D03*
X252753830Y-60350870D03*
X252753830Y-62890870D03*
X250213830Y-60350870D03*
X250213830Y-62890870D03*
D11*
X323056250Y-89693750D03*
X316706250Y-92233750D03*
D12*
X320516250Y-94773750D03*
D13*
X315436250Y-94773750D03*
X325596250Y-94773750D03*
D12*
X332416250Y-103013750D03*
X308616250Y-103013750D03*
D15*
X308616250Y-87773750D03*
X332416250Y-87773750D03*
X330035250Y-125873750D03*
X306235250Y-125873750D03*
D12*
X306235250Y-141113750D03*
X330035250Y-141113750D03*
D13*
X323215250Y-132873750D03*
X313055250Y-132873750D03*
D12*
X318135250Y-132873750D03*
D11*
X314325250Y-130333750D03*
X320675250Y-127793750D03*
D15*
X87147450Y-144923750D03*
X63347450Y-144923750D03*
D12*
X63347450Y-160163750D03*
X87147450Y-160163750D03*
D13*
X80327450Y-151923750D03*
X70167450Y-151923750D03*
D12*
X75247450Y-151923750D03*
D11*
X71437450Y-149383750D03*
X77787450Y-146843750D03*
X68262450Y-165883620D03*
X61912450Y-168423620D03*
D12*
X65722450Y-170963620D03*
D13*
X60642450Y-170963620D03*
X70802450Y-170963620D03*
D11*
X92075050Y-165893750D03*
X85725050Y-168433750D03*
D12*
X89535050Y-170973750D03*
D13*
X84455050Y-170973750D03*
X94615050Y-170973750D03*
D11*
X115887450Y-165883620D03*
X109537450Y-168423620D03*
D12*
X113347450Y-170963620D03*
D13*
X108267450Y-170963620D03*
X118427450Y-170963620D03*
D11*
X73025050Y-127783620D03*
X66675050Y-130323620D03*
D12*
X70485050Y-132863620D03*
D13*
X65405050Y-132863620D03*
X75565050Y-132863620D03*
D11*
X306387250Y-146843750D03*
X300037250Y-149383750D03*
D12*
X303847250Y-151923750D03*
D13*
X298767250Y-151923750D03*
X308927250Y-151923750D03*
X73183750Y-113823750D03*
X63023750Y-113823750D03*
D12*
X68103750Y-113823750D03*
D11*
X64293750Y-111283750D03*
X70643750Y-108743750D03*
D13*
X330358250Y-113823750D03*
X320198250Y-113823750D03*
D12*
X325278250Y-113823750D03*
D11*
X321468250Y-111283750D03*
X327818250Y-108743750D03*
X275466206Y-165893750D03*
X269116206Y-168433750D03*
D12*
X272926206Y-170973750D03*
D13*
X267846206Y-170973750D03*
X278006206Y-170973750D03*
D11*
X256410884Y-165883620D03*
X250060884Y-168423620D03*
D12*
X253870884Y-170963620D03*
D13*
X248790884Y-170963620D03*
X258950884Y-170963620D03*
D11*
X294481250Y-89693750D03*
X288131250Y-92233750D03*
D12*
X291941250Y-94773750D03*
D13*
X286861250Y-94773750D03*
X297021250Y-94773750D03*
D11*
X132556250Y-108743750D03*
X126206250Y-111283750D03*
D12*
X130016250Y-113823750D03*
D13*
X124936250Y-113823750D03*
X135096250Y-113823750D03*
D11*
X65881250Y-89693750D03*
X59531250Y-92233750D03*
D12*
X63341250Y-94773750D03*
D13*
X58261250Y-94773750D03*
X68421250Y-94773750D03*
D11*
X84931250Y-89693750D03*
X78581250Y-92233750D03*
D12*
X82391250Y-94773750D03*
D13*
X77311250Y-94773750D03*
X87471250Y-94773750D03*
D11*
X103981250Y-89693750D03*
X97631250Y-92233750D03*
D12*
X101441250Y-94773750D03*
D13*
X96361250Y-94773750D03*
X106521250Y-94773750D03*
D11*
X123031250Y-89693750D03*
X116681250Y-92233750D03*
D12*
X120491250Y-94773750D03*
D13*
X115411250Y-94773750D03*
X125571250Y-94773750D03*
D11*
X142081250Y-89693750D03*
X135731250Y-92233750D03*
D12*
X139541250Y-94773750D03*
D13*
X134461250Y-94773750D03*
X144621250Y-94773750D03*
D11*
X161131250Y-89693750D03*
X154781250Y-92233750D03*
D12*
X158591250Y-94773750D03*
D13*
X153511250Y-94773750D03*
X163671250Y-94773750D03*
D11*
X180181250Y-89693750D03*
X173831250Y-92233750D03*
D12*
X177641250Y-94773750D03*
D13*
X172561250Y-94773750D03*
X182721250Y-94773750D03*
D11*
X199231250Y-89693750D03*
X192881250Y-92233750D03*
D12*
X196691250Y-94773750D03*
D13*
X191611250Y-94773750D03*
X201771250Y-94773750D03*
D11*
X218281250Y-89693750D03*
X211931250Y-92233750D03*
D12*
X215741250Y-94773750D03*
D13*
X210661250Y-94773750D03*
X220821250Y-94773750D03*
D11*
X237331250Y-89693750D03*
X230981250Y-92233750D03*
D12*
X234791250Y-94773750D03*
D13*
X229711250Y-94773750D03*
X239871250Y-94773750D03*
D11*
X256381250Y-89693750D03*
X250031250Y-92233750D03*
D12*
X253841250Y-94773750D03*
D13*
X248761250Y-94773750D03*
X258921250Y-94773750D03*
D11*
X275431250Y-89693750D03*
X269081250Y-92233750D03*
D12*
X272891250Y-94773750D03*
D13*
X267811250Y-94773750D03*
X277971250Y-94773750D03*
D11*
X351631250Y-89693750D03*
X345281250Y-92233750D03*
D12*
X349091250Y-94773750D03*
D13*
X344011250Y-94773750D03*
X354171250Y-94773750D03*
D11*
X94456250Y-108743750D03*
X88106250Y-111283750D03*
D12*
X91916250Y-113823750D03*
D13*
X86836250Y-113823750D03*
X96996250Y-113823750D03*
D11*
X113506250Y-108743750D03*
X107156250Y-111283750D03*
D12*
X110966250Y-113823750D03*
D13*
X105886250Y-113823750D03*
X116046250Y-113823750D03*
D11*
X151606250Y-108743750D03*
X145256250Y-111283750D03*
D12*
X149066250Y-113823750D03*
D13*
X143986250Y-113823750D03*
X154146250Y-113823750D03*
D11*
X170656250Y-108743750D03*
X164306250Y-111283750D03*
D12*
X168116250Y-113823750D03*
D13*
X163036250Y-113823750D03*
X173196250Y-113823750D03*
D11*
X189706250Y-108743750D03*
X183356250Y-111283750D03*
D12*
X187166250Y-113823750D03*
D13*
X182086250Y-113823750D03*
X192246250Y-113823750D03*
D11*
X208756250Y-108743750D03*
X202406250Y-111283750D03*
D12*
X206216250Y-113823750D03*
D13*
X201136250Y-113823750D03*
X211296250Y-113823750D03*
D11*
X227806250Y-108743750D03*
X221456250Y-111283750D03*
D12*
X225266250Y-113823750D03*
D13*
X220186250Y-113823750D03*
X230346250Y-113823750D03*
D11*
X246856250Y-108743750D03*
X240506250Y-111283750D03*
D12*
X244316250Y-113823750D03*
D13*
X239236250Y-113823750D03*
X249396250Y-113823750D03*
D11*
X265906250Y-108743750D03*
X259556250Y-111283750D03*
D12*
X263366250Y-113823750D03*
D13*
X258286250Y-113823750D03*
X268446250Y-113823750D03*
D11*
X284956250Y-108743750D03*
X278606250Y-111283750D03*
D12*
X282416250Y-113823750D03*
D13*
X277336250Y-113823750D03*
X287496250Y-113823750D03*
D11*
X304006250Y-108743750D03*
X297656250Y-111283750D03*
D12*
X301466250Y-113823750D03*
D13*
X296386250Y-113823750D03*
X306546250Y-113823750D03*
D11*
X351631250Y-108743750D03*
X345281250Y-111283750D03*
D12*
X349091250Y-113823750D03*
D13*
X344011250Y-113823750D03*
X354171250Y-113823750D03*
D11*
X99218750Y-127793750D03*
X92868750Y-130333750D03*
D12*
X96678750Y-132873750D03*
D13*
X91598750Y-132873750D03*
X101758750Y-132873750D03*
D11*
X118268750Y-127793750D03*
X111918750Y-130333750D03*
D12*
X115728750Y-132873750D03*
D13*
X110648750Y-132873750D03*
X120808750Y-132873750D03*
D11*
X137318750Y-127793750D03*
X130968750Y-130333750D03*
D12*
X134778750Y-132873750D03*
D13*
X129698750Y-132873750D03*
X139858750Y-132873750D03*
D11*
X156368250Y-127793750D03*
X150018250Y-130333750D03*
D12*
X153828250Y-132873750D03*
D13*
X148748250Y-132873750D03*
X158908250Y-132873750D03*
D11*
X175418250Y-127793750D03*
X169068250Y-130333750D03*
D12*
X172878250Y-132873750D03*
D13*
X167798250Y-132873750D03*
X177958250Y-132873750D03*
D11*
X194468250Y-127793750D03*
X188118250Y-130333750D03*
D12*
X191928250Y-132873750D03*
D13*
X186848250Y-132873750D03*
X197008250Y-132873750D03*
D11*
X213518250Y-127793750D03*
X207168250Y-130333750D03*
D12*
X210978250Y-132873750D03*
D13*
X205898250Y-132873750D03*
X216058250Y-132873750D03*
D11*
X232568250Y-127793750D03*
X226218250Y-130333750D03*
D12*
X230028250Y-132873750D03*
D13*
X224948250Y-132873750D03*
X235108250Y-132873750D03*
D11*
X251618250Y-127793750D03*
X245268250Y-130333750D03*
D12*
X249078250Y-132873750D03*
D13*
X243998250Y-132873750D03*
X254158250Y-132873750D03*
D11*
X270668250Y-127793750D03*
X264318250Y-130333750D03*
D12*
X268128250Y-132873750D03*
D13*
X263048250Y-132873750D03*
X273208250Y-132873750D03*
D11*
X289718250Y-127793750D03*
X283368250Y-130333750D03*
D12*
X287178250Y-132873750D03*
D13*
X282098250Y-132873750D03*
X292258250Y-132873750D03*
D11*
X351631250Y-127793750D03*
X345281250Y-130333750D03*
D12*
X349091250Y-132873750D03*
D13*
X344011250Y-132873750D03*
X354171250Y-132873750D03*
D11*
X108743750Y-146843750D03*
X102393750Y-149383750D03*
D12*
X106203750Y-151923750D03*
D13*
X101123750Y-151923750D03*
X111283750Y-151923750D03*
D11*
X127793750Y-146843750D03*
X121443750Y-149383750D03*
D12*
X125253750Y-151923750D03*
D13*
X120173750Y-151923750D03*
X130333750Y-151923750D03*
D11*
X146843750Y-146843750D03*
X140493750Y-149383750D03*
D12*
X144303750Y-151923750D03*
D13*
X139223750Y-151923750D03*
X149383750Y-151923750D03*
D11*
X165894250Y-146843750D03*
X159544250Y-149383750D03*
D12*
X163354250Y-151923750D03*
D13*
X158274250Y-151923750D03*
X168434250Y-151923750D03*
D11*
X184944250Y-146843750D03*
X178594250Y-149383750D03*
D12*
X182404250Y-151923750D03*
D13*
X177324250Y-151923750D03*
X187484250Y-151923750D03*
D11*
X203994250Y-146843750D03*
X197644250Y-149383750D03*
D12*
X201454250Y-151923750D03*
D13*
X196374250Y-151923750D03*
X206534250Y-151923750D03*
D11*
X223044250Y-146843750D03*
X216694250Y-149383750D03*
D12*
X220504250Y-151923750D03*
D13*
X215424250Y-151923750D03*
X225584250Y-151923750D03*
D11*
X242094250Y-146843750D03*
X235744250Y-149383750D03*
D12*
X239554250Y-151923750D03*
D13*
X234474250Y-151923750D03*
X244634250Y-151923750D03*
D11*
X261144250Y-146843750D03*
X254794250Y-149383750D03*
D12*
X258604250Y-151923750D03*
D13*
X253524250Y-151923750D03*
X263684250Y-151923750D03*
D11*
X280194250Y-146843750D03*
X273844250Y-149383750D03*
D12*
X277654250Y-151923750D03*
D13*
X272574250Y-151923750D03*
X282734250Y-151923750D03*
D11*
X332581250Y-146843750D03*
X326231250Y-149383750D03*
D12*
X330041250Y-151923750D03*
D13*
X324961250Y-151923750D03*
X335121250Y-151923750D03*
D11*
X351631250Y-146843750D03*
X345281250Y-149383750D03*
D12*
X349091250Y-151923750D03*
D13*
X344011250Y-151923750D03*
X354171250Y-151923750D03*
D11*
X187325250Y-165893750D03*
X180975250Y-168433750D03*
D12*
X184785250Y-170973750D03*
D13*
X179705250Y-170973750D03*
X189865250Y-170973750D03*
D11*
X313531250Y-165893750D03*
X307181250Y-168433750D03*
D12*
X310991250Y-170973750D03*
D13*
X305911250Y-170973750D03*
X316071250Y-170973750D03*
D11*
X332581250Y-165893750D03*
X326231250Y-168433750D03*
D12*
X330041250Y-170973750D03*
D13*
X324961250Y-170973750D03*
X335121250Y-170973750D03*
D11*
X351631250Y-165893750D03*
X345281250Y-168433750D03*
D12*
X349091250Y-170973750D03*
D13*
X344011250Y-170973750D03*
X354171250Y-170973750D03*
D11*
X294521528Y-165883620D03*
X288171528Y-168423620D03*
D12*
X291981528Y-170963620D03*
D13*
X286901528Y-170963620D03*
X297061528Y-170963620D03*
D17*
X337251644Y-80256240D03*
X332371644Y-80256240D03*
D18*
X341906112Y-79506040D03*
X341906112Y-82006040D03*
X327680238Y-79506040D03*
X327680238Y-82006040D03*
X330125530Y-58926178D03*
X325125530Y-58926178D03*
X325471062Y-78716416D03*
X320471062Y-78716416D03*
D19*
X296376316Y-75645517D03*
D20*
X288756316Y-75645517D03*
D19*
X296376316Y-73152052D03*
D20*
X288756316Y-73152052D03*
D19*
X296376316Y-78138982D03*
D20*
X288756316Y-78138982D03*
D19*
X288756316Y-70580211D03*
D20*
X296376316Y-70580211D03*
D19*
X288756316Y-68060499D03*
D20*
X296376316Y-68060499D03*
D19*
X288756316Y-65567034D03*
D20*
X296376316Y-65567034D03*
D19*
X296376316Y-63073204D03*
D20*
X288756316Y-63073204D03*
G36*
G01*
X285077677Y-71055866D02*
X283877675Y-71055866D01*
G75*
G02*
X283826676Y-71004867I0J50999D01*
G01*
X283826676Y-69804865D01*
G75*
G02*
X283877675Y-69753866I50999J0D01*
G01*
X285077677Y-69753866D01*
G75*
G02*
X285128676Y-69804865I0J-50999D01*
G01*
X285128676Y-71004867D01*
G75*
G02*
X285077677Y-71055866I-50999J0D01*
G01*
G37*
D21*
X284477676Y-68904866D03*
D22*
X286667716Y-61970830D03*
G36*
G01*
X283176716Y-62870830D02*
X283176716Y-61070830D01*
G75*
G02*
X283227716Y-61019830I51000J0D01*
G01*
X285027716Y-61019830D01*
G75*
G02*
X285078716Y-61070830I0J-51000D01*
G01*
X285078716Y-62870830D01*
G75*
G02*
X285027716Y-62921830I-51000J0D01*
G01*
X283227716Y-62921830D01*
G75*
G02*
X283176716Y-62870830I0J51000D01*
G01*
G37*
D23*
X278823468Y-66391022D03*
X280523468Y-66391022D03*
X279673468Y-66391022D03*
X277973468Y-66391022D03*
X277123468Y-66391022D03*
X276273468Y-66391022D03*
X275423468Y-66391022D03*
X274573468Y-66391022D03*
X280523468Y-65066022D03*
X279668468Y-65066022D03*
X278818468Y-65066022D03*
X277968468Y-65066022D03*
X277118468Y-65066022D03*
X276268468Y-65066022D03*
X275418468Y-65066022D03*
X274568468Y-65066022D03*
D24*
X281873468Y-65411022D03*
X273223468Y-65411022D03*
D25*
X281873468Y-62031022D03*
X273223468Y-62031022D03*
D19*
X270047614Y-59350838D03*
X270047614Y-64450838D03*
D26*
X244985732Y-59836074D03*
X244985732Y-64336074D03*
X238485732Y-59836074D03*
X238485732Y-64336074D03*
X232985732Y-59836074D03*
X232985732Y-64336074D03*
X226485732Y-59836074D03*
X226485732Y-64336074D03*
D16*
X63600284Y-72555612D03*
G36*
G01*
X62800284Y-66624612D02*
X64400284Y-66624612D01*
G75*
G02*
X64451284Y-66675612I0J-51000D01*
G01*
X64451284Y-68275612D01*
G75*
G02*
X64400284Y-68326612I-51000J0D01*
G01*
X62800284Y-68326612D01*
G75*
G02*
X62749284Y-68275612I0J51000D01*
G01*
X62749284Y-66675612D01*
G75*
G02*
X62800284Y-66624612I51000J0D01*
G01*
G37*
X73108673Y-77516199D03*
G36*
G01*
X72308673Y-71585199D02*
X73908673Y-71585199D01*
G75*
G02*
X73959673Y-71636199I0J-51000D01*
G01*
X73959673Y-73236199D01*
G75*
G02*
X73908673Y-73287199I-51000J0D01*
G01*
X72308673Y-73287199D01*
G75*
G02*
X72257673Y-73236199I0J51000D01*
G01*
X72257673Y-71636199D01*
G75*
G02*
X72308673Y-71585199I51000J0D01*
G01*
G37*
X85786525Y-77516199D03*
G36*
G01*
X84986525Y-71585199D02*
X86586525Y-71585199D01*
G75*
G02*
X86637525Y-71636199I0J-51000D01*
G01*
X86637525Y-73236199D01*
G75*
G02*
X86586525Y-73287199I-51000J0D01*
G01*
X84986525Y-73287199D01*
G75*
G02*
X84935525Y-73236199I0J51000D01*
G01*
X84935525Y-71636199D01*
G75*
G02*
X84986525Y-71585199I51000J0D01*
G01*
G37*
X88955988Y-72555612D03*
G36*
G01*
X88155988Y-66624612D02*
X89755988Y-66624612D01*
G75*
G02*
X89806988Y-66675612I0J-51000D01*
G01*
X89806988Y-68275612D01*
G75*
G02*
X89755988Y-68326612I-51000J0D01*
G01*
X88155988Y-68326612D01*
G75*
G02*
X88104988Y-68275612I0J51000D01*
G01*
X88104988Y-66675612D01*
G75*
G02*
X88155988Y-66624612I51000J0D01*
G01*
G37*
X101633840Y-72555612D03*
G36*
G01*
X100833840Y-66624612D02*
X102433840Y-66624612D01*
G75*
G02*
X102484840Y-66675612I0J-51000D01*
G01*
X102484840Y-68275612D01*
G75*
G02*
X102433840Y-68326612I-51000J0D01*
G01*
X100833840Y-68326612D01*
G75*
G02*
X100782840Y-68275612I0J51000D01*
G01*
X100782840Y-66675612D01*
G75*
G02*
X100833840Y-66624612I51000J0D01*
G01*
G37*
X114311692Y-72555612D03*
G36*
G01*
X113511692Y-66624612D02*
X115111692Y-66624612D01*
G75*
G02*
X115162692Y-66675612I0J-51000D01*
G01*
X115162692Y-68275612D01*
G75*
G02*
X115111692Y-68326612I-51000J0D01*
G01*
X113511692Y-68326612D01*
G75*
G02*
X113460692Y-68275612I0J51000D01*
G01*
X113460692Y-66675612D01*
G75*
G02*
X113511692Y-66624612I51000J0D01*
G01*
G37*
X126989544Y-72555612D03*
G36*
G01*
X126189544Y-66624612D02*
X127789544Y-66624612D01*
G75*
G02*
X127840544Y-66675612I0J-51000D01*
G01*
X127840544Y-68275612D01*
G75*
G02*
X127789544Y-68326612I-51000J0D01*
G01*
X126189544Y-68326612D01*
G75*
G02*
X126138544Y-68275612I0J51000D01*
G01*
X126138544Y-66675612D01*
G75*
G02*
X126189544Y-66624612I51000J0D01*
G01*
G37*
X139667396Y-72555612D03*
G36*
G01*
X138867396Y-66624612D02*
X140467396Y-66624612D01*
G75*
G02*
X140518396Y-66675612I0J-51000D01*
G01*
X140518396Y-68275612D01*
G75*
G02*
X140467396Y-68326612I-51000J0D01*
G01*
X138867396Y-68326612D01*
G75*
G02*
X138816396Y-68275612I0J51000D01*
G01*
X138816396Y-66675612D01*
G75*
G02*
X138867396Y-66624612I51000J0D01*
G01*
G37*
X152345248Y-72555612D03*
G36*
G01*
X151545248Y-66624612D02*
X153145248Y-66624612D01*
G75*
G02*
X153196248Y-66675612I0J-51000D01*
G01*
X153196248Y-68275612D01*
G75*
G02*
X153145248Y-68326612I-51000J0D01*
G01*
X151545248Y-68326612D01*
G75*
G02*
X151494248Y-68275612I0J51000D01*
G01*
X151494248Y-66675612D01*
G75*
G02*
X151545248Y-66624612I51000J0D01*
G01*
G37*
X165023100Y-72555612D03*
G36*
G01*
X164223100Y-66624612D02*
X165823100Y-66624612D01*
G75*
G02*
X165874100Y-66675612I0J-51000D01*
G01*
X165874100Y-68275612D01*
G75*
G02*
X165823100Y-68326612I-51000J0D01*
G01*
X164223100Y-68326612D01*
G75*
G02*
X164172100Y-68275612I0J51000D01*
G01*
X164172100Y-66675612D01*
G75*
G02*
X164223100Y-66624612I51000J0D01*
G01*
G37*
X177700952Y-72555612D03*
G36*
G01*
X176900952Y-66624612D02*
X178500952Y-66624612D01*
G75*
G02*
X178551952Y-66675612I0J-51000D01*
G01*
X178551952Y-68275612D01*
G75*
G02*
X178500952Y-68326612I-51000J0D01*
G01*
X176900952Y-68326612D01*
G75*
G02*
X176849952Y-68275612I0J51000D01*
G01*
X176849952Y-66675612D01*
G75*
G02*
X176900952Y-66624612I51000J0D01*
G01*
G37*
X190378804Y-72555612D03*
G36*
G01*
X189578804Y-66624612D02*
X191178804Y-66624612D01*
G75*
G02*
X191229804Y-66675612I0J-51000D01*
G01*
X191229804Y-68275612D01*
G75*
G02*
X191178804Y-68326612I-51000J0D01*
G01*
X189578804Y-68326612D01*
G75*
G02*
X189527804Y-68275612I0J51000D01*
G01*
X189527804Y-66675612D01*
G75*
G02*
X189578804Y-66624612I51000J0D01*
G01*
G37*
X203056656Y-72555612D03*
G36*
G01*
X202256656Y-66624612D02*
X203856656Y-66624612D01*
G75*
G02*
X203907656Y-66675612I0J-51000D01*
G01*
X203907656Y-68275612D01*
G75*
G02*
X203856656Y-68326612I-51000J0D01*
G01*
X202256656Y-68326612D01*
G75*
G02*
X202205656Y-68275612I0J51000D01*
G01*
X202205656Y-66675612D01*
G75*
G02*
X202256656Y-66624612I51000J0D01*
G01*
G37*
X215734508Y-72555612D03*
G36*
G01*
X214934508Y-66624612D02*
X216534508Y-66624612D01*
G75*
G02*
X216585508Y-66675612I0J-51000D01*
G01*
X216585508Y-68275612D01*
G75*
G02*
X216534508Y-68326612I-51000J0D01*
G01*
X214934508Y-68326612D01*
G75*
G02*
X214883508Y-68275612I0J51000D01*
G01*
X214883508Y-66675612D01*
G75*
G02*
X214934508Y-66624612I51000J0D01*
G01*
G37*
X228342376Y-72555612D03*
G36*
G01*
X227542376Y-66624612D02*
X229142376Y-66624612D01*
G75*
G02*
X229193376Y-66675612I0J-51000D01*
G01*
X229193376Y-68275612D01*
G75*
G02*
X229142376Y-68326612I-51000J0D01*
G01*
X227542376Y-68326612D01*
G75*
G02*
X227491376Y-68275612I0J51000D01*
G01*
X227491376Y-66675612D01*
G75*
G02*
X227542376Y-66624612I51000J0D01*
G01*
G37*
X275541929Y-77516199D03*
G36*
G01*
X274741929Y-71585199D02*
X276341929Y-71585199D01*
G75*
G02*
X276392929Y-71636199I0J-51000D01*
G01*
X276392929Y-73236199D01*
G75*
G02*
X276341929Y-73287199I-51000J0D01*
G01*
X274741929Y-73287199D01*
G75*
G02*
X274690929Y-73236199I0J51000D01*
G01*
X274690929Y-71636199D01*
G75*
G02*
X274741929Y-71585199I51000J0D01*
G01*
G37*
X66769747Y-74209141D03*
G36*
G01*
X65969747Y-68278141D02*
X67569747Y-68278141D01*
G75*
G02*
X67620747Y-68329141I0J-51000D01*
G01*
X67620747Y-69929141D01*
G75*
G02*
X67569747Y-69980141I-51000J0D01*
G01*
X65969747Y-69980141D01*
G75*
G02*
X65918747Y-69929141I0J51000D01*
G01*
X65918747Y-68329141D01*
G75*
G02*
X65969747Y-68278141I51000J0D01*
G01*
G37*
X82617062Y-75862670D03*
G36*
G01*
X81817062Y-69931670D02*
X83417062Y-69931670D01*
G75*
G02*
X83468062Y-69982670I0J-51000D01*
G01*
X83468062Y-71582670D01*
G75*
G02*
X83417062Y-71633670I-51000J0D01*
G01*
X81817062Y-71633670D01*
G75*
G02*
X81766062Y-71582670I0J51000D01*
G01*
X81766062Y-69982670D01*
G75*
G02*
X81817062Y-69931670I51000J0D01*
G01*
G37*
X92125451Y-74209141D03*
G36*
G01*
X91325451Y-68278141D02*
X92925451Y-68278141D01*
G75*
G02*
X92976451Y-68329141I0J-51000D01*
G01*
X92976451Y-69929141D01*
G75*
G02*
X92925451Y-69980141I-51000J0D01*
G01*
X91325451Y-69980141D01*
G75*
G02*
X91274451Y-69929141I0J51000D01*
G01*
X91274451Y-68329141D01*
G75*
G02*
X91325451Y-68278141I51000J0D01*
G01*
G37*
X104803303Y-74209141D03*
G36*
G01*
X104003303Y-68278141D02*
X105603303Y-68278141D01*
G75*
G02*
X105654303Y-68329141I0J-51000D01*
G01*
X105654303Y-69929141D01*
G75*
G02*
X105603303Y-69980141I-51000J0D01*
G01*
X104003303Y-69980141D01*
G75*
G02*
X103952303Y-69929141I0J51000D01*
G01*
X103952303Y-68329141D01*
G75*
G02*
X104003303Y-68278141I51000J0D01*
G01*
G37*
X117481155Y-74209141D03*
G36*
G01*
X116681155Y-68278141D02*
X118281155Y-68278141D01*
G75*
G02*
X118332155Y-68329141I0J-51000D01*
G01*
X118332155Y-69929141D01*
G75*
G02*
X118281155Y-69980141I-51000J0D01*
G01*
X116681155Y-69980141D01*
G75*
G02*
X116630155Y-69929141I0J51000D01*
G01*
X116630155Y-68329141D01*
G75*
G02*
X116681155Y-68278141I51000J0D01*
G01*
G37*
X130159007Y-74209141D03*
G36*
G01*
X129359007Y-68278141D02*
X130959007Y-68278141D01*
G75*
G02*
X131010007Y-68329141I0J-51000D01*
G01*
X131010007Y-69929141D01*
G75*
G02*
X130959007Y-69980141I-51000J0D01*
G01*
X129359007Y-69980141D01*
G75*
G02*
X129308007Y-69929141I0J51000D01*
G01*
X129308007Y-68329141D01*
G75*
G02*
X129359007Y-68278141I51000J0D01*
G01*
G37*
X142836859Y-74209141D03*
G36*
G01*
X142036859Y-68278141D02*
X143636859Y-68278141D01*
G75*
G02*
X143687859Y-68329141I0J-51000D01*
G01*
X143687859Y-69929141D01*
G75*
G02*
X143636859Y-69980141I-51000J0D01*
G01*
X142036859Y-69980141D01*
G75*
G02*
X141985859Y-69929141I0J51000D01*
G01*
X141985859Y-68329141D01*
G75*
G02*
X142036859Y-68278141I51000J0D01*
G01*
G37*
X155514711Y-74209141D03*
G36*
G01*
X154714711Y-68278141D02*
X156314711Y-68278141D01*
G75*
G02*
X156365711Y-68329141I0J-51000D01*
G01*
X156365711Y-69929141D01*
G75*
G02*
X156314711Y-69980141I-51000J0D01*
G01*
X154714711Y-69980141D01*
G75*
G02*
X154663711Y-69929141I0J51000D01*
G01*
X154663711Y-68329141D01*
G75*
G02*
X154714711Y-68278141I51000J0D01*
G01*
G37*
X168192563Y-74209141D03*
G36*
G01*
X167392563Y-68278141D02*
X168992563Y-68278141D01*
G75*
G02*
X169043563Y-68329141I0J-51000D01*
G01*
X169043563Y-69929141D01*
G75*
G02*
X168992563Y-69980141I-51000J0D01*
G01*
X167392563Y-69980141D01*
G75*
G02*
X167341563Y-69929141I0J51000D01*
G01*
X167341563Y-68329141D01*
G75*
G02*
X167392563Y-68278141I51000J0D01*
G01*
G37*
X180870415Y-74209141D03*
G36*
G01*
X180070415Y-68278141D02*
X181670415Y-68278141D01*
G75*
G02*
X181721415Y-68329141I0J-51000D01*
G01*
X181721415Y-69929141D01*
G75*
G02*
X181670415Y-69980141I-51000J0D01*
G01*
X180070415Y-69980141D01*
G75*
G02*
X180019415Y-69929141I0J51000D01*
G01*
X180019415Y-68329141D01*
G75*
G02*
X180070415Y-68278141I51000J0D01*
G01*
G37*
X193548267Y-74209141D03*
G36*
G01*
X192748267Y-68278141D02*
X194348267Y-68278141D01*
G75*
G02*
X194399267Y-68329141I0J-51000D01*
G01*
X194399267Y-69929141D01*
G75*
G02*
X194348267Y-69980141I-51000J0D01*
G01*
X192748267Y-69980141D01*
G75*
G02*
X192697267Y-69929141I0J51000D01*
G01*
X192697267Y-68329141D01*
G75*
G02*
X192748267Y-68278141I51000J0D01*
G01*
G37*
X206226119Y-74209141D03*
G36*
G01*
X205426119Y-68278141D02*
X207026119Y-68278141D01*
G75*
G02*
X207077119Y-68329141I0J-51000D01*
G01*
X207077119Y-69929141D01*
G75*
G02*
X207026119Y-69980141I-51000J0D01*
G01*
X205426119Y-69980141D01*
G75*
G02*
X205375119Y-69929141I0J51000D01*
G01*
X205375119Y-68329141D01*
G75*
G02*
X205426119Y-68278141I51000J0D01*
G01*
G37*
X218886475Y-74209141D03*
G36*
G01*
X218086475Y-68278141D02*
X219686475Y-68278141D01*
G75*
G02*
X219737475Y-68329141I0J-51000D01*
G01*
X219737475Y-69929141D01*
G75*
G02*
X219686475Y-69980141I-51000J0D01*
G01*
X218086475Y-69980141D01*
G75*
G02*
X218035475Y-69929141I0J51000D01*
G01*
X218035475Y-68329141D01*
G75*
G02*
X218086475Y-68278141I51000J0D01*
G01*
G37*
X231493149Y-74209141D03*
G36*
G01*
X230693149Y-68278141D02*
X232293149Y-68278141D01*
G75*
G02*
X232344149Y-68329141I0J-51000D01*
G01*
X232344149Y-69929141D01*
G75*
G02*
X232293149Y-69980141I-51000J0D01*
G01*
X230693149Y-69980141D01*
G75*
G02*
X230642149Y-69929141I0J51000D01*
G01*
X230642149Y-68329141D01*
G75*
G02*
X230693149Y-68278141I51000J0D01*
G01*
G37*
X272453205Y-75862670D03*
G36*
G01*
X271653205Y-69931670D02*
X273253205Y-69931670D01*
G75*
G02*
X273304205Y-69982670I0J-51000D01*
G01*
X273304205Y-71582670D01*
G75*
G02*
X273253205Y-71633670I-51000J0D01*
G01*
X271653205Y-71633670D01*
G75*
G02*
X271602205Y-71582670I0J51000D01*
G01*
X271602205Y-69982670D01*
G75*
G02*
X271653205Y-69931670I51000J0D01*
G01*
G37*
X69939210Y-75862670D03*
G36*
G01*
X69139210Y-69931670D02*
X70739210Y-69931670D01*
G75*
G02*
X70790210Y-69982670I0J-51000D01*
G01*
X70790210Y-71582670D01*
G75*
G02*
X70739210Y-71633670I-51000J0D01*
G01*
X69139210Y-71633670D01*
G75*
G02*
X69088210Y-71582670I0J51000D01*
G01*
X69088210Y-69982670D01*
G75*
G02*
X69139210Y-69931670I51000J0D01*
G01*
G37*
X79447599Y-74209141D03*
G36*
G01*
X78647599Y-68278141D02*
X80247599Y-68278141D01*
G75*
G02*
X80298599Y-68329141I0J-51000D01*
G01*
X80298599Y-69929141D01*
G75*
G02*
X80247599Y-69980141I-51000J0D01*
G01*
X78647599Y-69980141D01*
G75*
G02*
X78596599Y-69929141I0J51000D01*
G01*
X78596599Y-68329141D01*
G75*
G02*
X78647599Y-68278141I51000J0D01*
G01*
G37*
X95294914Y-75862670D03*
G36*
G01*
X94494914Y-69931670D02*
X96094914Y-69931670D01*
G75*
G02*
X96145914Y-69982670I0J-51000D01*
G01*
X96145914Y-71582670D01*
G75*
G02*
X96094914Y-71633670I-51000J0D01*
G01*
X94494914Y-71633670D01*
G75*
G02*
X94443914Y-71582670I0J51000D01*
G01*
X94443914Y-69982670D01*
G75*
G02*
X94494914Y-69931670I51000J0D01*
G01*
G37*
X107972766Y-75862670D03*
G36*
G01*
X107172766Y-69931670D02*
X108772766Y-69931670D01*
G75*
G02*
X108823766Y-69982670I0J-51000D01*
G01*
X108823766Y-71582670D01*
G75*
G02*
X108772766Y-71633670I-51000J0D01*
G01*
X107172766Y-71633670D01*
G75*
G02*
X107121766Y-71582670I0J51000D01*
G01*
X107121766Y-69982670D01*
G75*
G02*
X107172766Y-69931670I51000J0D01*
G01*
G37*
X120650618Y-75862670D03*
G36*
G01*
X119850618Y-69931670D02*
X121450618Y-69931670D01*
G75*
G02*
X121501618Y-69982670I0J-51000D01*
G01*
X121501618Y-71582670D01*
G75*
G02*
X121450618Y-71633670I-51000J0D01*
G01*
X119850618Y-71633670D01*
G75*
G02*
X119799618Y-71582670I0J51000D01*
G01*
X119799618Y-69982670D01*
G75*
G02*
X119850618Y-69931670I51000J0D01*
G01*
G37*
X133328470Y-75862670D03*
G36*
G01*
X132528470Y-69931670D02*
X134128470Y-69931670D01*
G75*
G02*
X134179470Y-69982670I0J-51000D01*
G01*
X134179470Y-71582670D01*
G75*
G02*
X134128470Y-71633670I-51000J0D01*
G01*
X132528470Y-71633670D01*
G75*
G02*
X132477470Y-71582670I0J51000D01*
G01*
X132477470Y-69982670D01*
G75*
G02*
X132528470Y-69931670I51000J0D01*
G01*
G37*
X146006322Y-75862670D03*
G36*
G01*
X145206322Y-69931670D02*
X146806322Y-69931670D01*
G75*
G02*
X146857322Y-69982670I0J-51000D01*
G01*
X146857322Y-71582670D01*
G75*
G02*
X146806322Y-71633670I-51000J0D01*
G01*
X145206322Y-71633670D01*
G75*
G02*
X145155322Y-71582670I0J51000D01*
G01*
X145155322Y-69982670D01*
G75*
G02*
X145206322Y-69931670I51000J0D01*
G01*
G37*
X158684174Y-75862670D03*
G36*
G01*
X157884174Y-69931670D02*
X159484174Y-69931670D01*
G75*
G02*
X159535174Y-69982670I0J-51000D01*
G01*
X159535174Y-71582670D01*
G75*
G02*
X159484174Y-71633670I-51000J0D01*
G01*
X157884174Y-71633670D01*
G75*
G02*
X157833174Y-71582670I0J51000D01*
G01*
X157833174Y-69982670D01*
G75*
G02*
X157884174Y-69931670I51000J0D01*
G01*
G37*
X171362026Y-75862670D03*
G36*
G01*
X170562026Y-69931670D02*
X172162026Y-69931670D01*
G75*
G02*
X172213026Y-69982670I0J-51000D01*
G01*
X172213026Y-71582670D01*
G75*
G02*
X172162026Y-71633670I-51000J0D01*
G01*
X170562026Y-71633670D01*
G75*
G02*
X170511026Y-71582670I0J51000D01*
G01*
X170511026Y-69982670D01*
G75*
G02*
X170562026Y-69931670I51000J0D01*
G01*
G37*
X184039878Y-75862670D03*
G36*
G01*
X183239878Y-69931670D02*
X184839878Y-69931670D01*
G75*
G02*
X184890878Y-69982670I0J-51000D01*
G01*
X184890878Y-71582670D01*
G75*
G02*
X184839878Y-71633670I-51000J0D01*
G01*
X183239878Y-71633670D01*
G75*
G02*
X183188878Y-71582670I0J51000D01*
G01*
X183188878Y-69982670D01*
G75*
G02*
X183239878Y-69931670I51000J0D01*
G01*
G37*
X196717730Y-75862670D03*
G36*
G01*
X195917730Y-69931670D02*
X197517730Y-69931670D01*
G75*
G02*
X197568730Y-69982670I0J-51000D01*
G01*
X197568730Y-71582670D01*
G75*
G02*
X197517730Y-71633670I-51000J0D01*
G01*
X195917730Y-71633670D01*
G75*
G02*
X195866730Y-71582670I0J51000D01*
G01*
X195866730Y-69982670D01*
G75*
G02*
X195917730Y-69931670I51000J0D01*
G01*
G37*
X209395582Y-75862670D03*
G36*
G01*
X208595582Y-69931670D02*
X210195582Y-69931670D01*
G75*
G02*
X210246582Y-69982670I0J-51000D01*
G01*
X210246582Y-71582670D01*
G75*
G02*
X210195582Y-71633670I-51000J0D01*
G01*
X208595582Y-71633670D01*
G75*
G02*
X208544582Y-71582670I0J51000D01*
G01*
X208544582Y-69982670D01*
G75*
G02*
X208595582Y-69931670I51000J0D01*
G01*
G37*
X234643922Y-75862670D03*
G36*
G01*
X233843922Y-69931670D02*
X235443922Y-69931670D01*
G75*
G02*
X235494922Y-69982670I0J-51000D01*
G01*
X235494922Y-71582670D01*
G75*
G02*
X235443922Y-71633670I-51000J0D01*
G01*
X233843922Y-71633670D01*
G75*
G02*
X233792922Y-71582670I0J51000D01*
G01*
X233792922Y-69982670D01*
G75*
G02*
X233843922Y-69931670I51000J0D01*
G01*
G37*
X269364481Y-74209141D03*
G36*
G01*
X268564481Y-68278141D02*
X270164481Y-68278141D01*
G75*
G02*
X270215481Y-68329141I0J-51000D01*
G01*
X270215481Y-69929141D01*
G75*
G02*
X270164481Y-69980141I-51000J0D01*
G01*
X268564481Y-69980141D01*
G75*
G02*
X268513481Y-69929141I0J51000D01*
G01*
X268513481Y-68329141D01*
G75*
G02*
X268564481Y-68278141I51000J0D01*
G01*
G37*
X98464377Y-77516199D03*
G36*
G01*
X97664377Y-71585199D02*
X99264377Y-71585199D01*
G75*
G02*
X99315377Y-71636199I0J-51000D01*
G01*
X99315377Y-73236199D01*
G75*
G02*
X99264377Y-73287199I-51000J0D01*
G01*
X97664377Y-73287199D01*
G75*
G02*
X97613377Y-73236199I0J51000D01*
G01*
X97613377Y-71636199D01*
G75*
G02*
X97664377Y-71585199I51000J0D01*
G01*
G37*
X111142229Y-77516199D03*
G36*
G01*
X110342229Y-71585199D02*
X111942229Y-71585199D01*
G75*
G02*
X111993229Y-71636199I0J-51000D01*
G01*
X111993229Y-73236199D01*
G75*
G02*
X111942229Y-73287199I-51000J0D01*
G01*
X110342229Y-73287199D01*
G75*
G02*
X110291229Y-73236199I0J51000D01*
G01*
X110291229Y-71636199D01*
G75*
G02*
X110342229Y-71585199I51000J0D01*
G01*
G37*
X123820081Y-77516199D03*
G36*
G01*
X123020081Y-71585199D02*
X124620081Y-71585199D01*
G75*
G02*
X124671081Y-71636199I0J-51000D01*
G01*
X124671081Y-73236199D01*
G75*
G02*
X124620081Y-73287199I-51000J0D01*
G01*
X123020081Y-73287199D01*
G75*
G02*
X122969081Y-73236199I0J51000D01*
G01*
X122969081Y-71636199D01*
G75*
G02*
X123020081Y-71585199I51000J0D01*
G01*
G37*
X136497933Y-77516199D03*
G36*
G01*
X135697933Y-71585199D02*
X137297933Y-71585199D01*
G75*
G02*
X137348933Y-71636199I0J-51000D01*
G01*
X137348933Y-73236199D01*
G75*
G02*
X137297933Y-73287199I-51000J0D01*
G01*
X135697933Y-73287199D01*
G75*
G02*
X135646933Y-73236199I0J51000D01*
G01*
X135646933Y-71636199D01*
G75*
G02*
X135697933Y-71585199I51000J0D01*
G01*
G37*
X149175785Y-77516199D03*
G36*
G01*
X148375785Y-71585199D02*
X149975785Y-71585199D01*
G75*
G02*
X150026785Y-71636199I0J-51000D01*
G01*
X150026785Y-73236199D01*
G75*
G02*
X149975785Y-73287199I-51000J0D01*
G01*
X148375785Y-73287199D01*
G75*
G02*
X148324785Y-73236199I0J51000D01*
G01*
X148324785Y-71636199D01*
G75*
G02*
X148375785Y-71585199I51000J0D01*
G01*
G37*
X161853637Y-77516199D03*
G36*
G01*
X161053637Y-71585199D02*
X162653637Y-71585199D01*
G75*
G02*
X162704637Y-71636199I0J-51000D01*
G01*
X162704637Y-73236199D01*
G75*
G02*
X162653637Y-73287199I-51000J0D01*
G01*
X161053637Y-73287199D01*
G75*
G02*
X161002637Y-73236199I0J51000D01*
G01*
X161002637Y-71636199D01*
G75*
G02*
X161053637Y-71585199I51000J0D01*
G01*
G37*
X174531489Y-77516199D03*
G36*
G01*
X173731489Y-71585199D02*
X175331489Y-71585199D01*
G75*
G02*
X175382489Y-71636199I0J-51000D01*
G01*
X175382489Y-73236199D01*
G75*
G02*
X175331489Y-73287199I-51000J0D01*
G01*
X173731489Y-73287199D01*
G75*
G02*
X173680489Y-73236199I0J51000D01*
G01*
X173680489Y-71636199D01*
G75*
G02*
X173731489Y-71585199I51000J0D01*
G01*
G37*
X187209341Y-77516199D03*
G36*
G01*
X186409341Y-71585199D02*
X188009341Y-71585199D01*
G75*
G02*
X188060341Y-71636199I0J-51000D01*
G01*
X188060341Y-73236199D01*
G75*
G02*
X188009341Y-73287199I-51000J0D01*
G01*
X186409341Y-73287199D01*
G75*
G02*
X186358341Y-73236199I0J51000D01*
G01*
X186358341Y-71636199D01*
G75*
G02*
X186409341Y-71585199I51000J0D01*
G01*
G37*
X199887193Y-77516199D03*
G36*
G01*
X199087193Y-71585199D02*
X200687193Y-71585199D01*
G75*
G02*
X200738193Y-71636199I0J-51000D01*
G01*
X200738193Y-73236199D01*
G75*
G02*
X200687193Y-73287199I-51000J0D01*
G01*
X199087193Y-73287199D01*
G75*
G02*
X199036193Y-73236199I0J51000D01*
G01*
X199036193Y-71636199D01*
G75*
G02*
X199087193Y-71585199I51000J0D01*
G01*
G37*
X212565045Y-77516199D03*
G36*
G01*
X211765045Y-71585199D02*
X213365045Y-71585199D01*
G75*
G02*
X213416045Y-71636199I0J-51000D01*
G01*
X213416045Y-73236199D01*
G75*
G02*
X213365045Y-73287199I-51000J0D01*
G01*
X211765045Y-73287199D01*
G75*
G02*
X211714045Y-73236199I0J51000D01*
G01*
X211714045Y-71636199D01*
G75*
G02*
X211765045Y-71585199I51000J0D01*
G01*
G37*
X222038442Y-75862670D03*
G36*
G01*
X221238442Y-69931670D02*
X222838442Y-69931670D01*
G75*
G02*
X222889442Y-69982670I0J-51000D01*
G01*
X222889442Y-71582670D01*
G75*
G02*
X222838442Y-71633670I-51000J0D01*
G01*
X221238442Y-71633670D01*
G75*
G02*
X221187442Y-71582670I0J51000D01*
G01*
X221187442Y-69982670D01*
G75*
G02*
X221238442Y-69931670I51000J0D01*
G01*
G37*
X237794695Y-77516199D03*
G36*
G01*
X236994695Y-71585199D02*
X238594695Y-71585199D01*
G75*
G02*
X238645695Y-71636199I0J-51000D01*
G01*
X238645695Y-73236199D01*
G75*
G02*
X238594695Y-73287199I-51000J0D01*
G01*
X236994695Y-73287199D01*
G75*
G02*
X236943695Y-73236199I0J51000D01*
G01*
X236943695Y-71636199D01*
G75*
G02*
X236994695Y-71585199I51000J0D01*
G01*
G37*
X266089606Y-72555612D03*
G36*
G01*
X265289606Y-66624612D02*
X266889606Y-66624612D01*
G75*
G02*
X266940606Y-66675612I0J-51000D01*
G01*
X266940606Y-68275612D01*
G75*
G02*
X266889606Y-68326612I-51000J0D01*
G01*
X265289606Y-68326612D01*
G75*
G02*
X265238606Y-68275612I0J51000D01*
G01*
X265238606Y-66675612D01*
G75*
G02*
X265289606Y-66624612I51000J0D01*
G01*
G37*
X259788058Y-75862670D03*
G36*
G01*
X258988058Y-69931670D02*
X260588058Y-69931670D01*
G75*
G02*
X260639058Y-69982670I0J-51000D01*
G01*
X260639058Y-71582670D01*
G75*
G02*
X260588058Y-71633670I-51000J0D01*
G01*
X258988058Y-71633670D01*
G75*
G02*
X258937058Y-71582670I0J51000D01*
G01*
X258937058Y-69982670D01*
G75*
G02*
X258988058Y-69931670I51000J0D01*
G01*
G37*
X76278136Y-72555612D03*
G36*
G01*
X75478136Y-66624612D02*
X77078136Y-66624612D01*
G75*
G02*
X77129136Y-66675612I0J-51000D01*
G01*
X77129136Y-68275612D01*
G75*
G02*
X77078136Y-68326612I-51000J0D01*
G01*
X75478136Y-68326612D01*
G75*
G02*
X75427136Y-68275612I0J51000D01*
G01*
X75427136Y-66675612D01*
G75*
G02*
X75478136Y-66624612I51000J0D01*
G01*
G37*
X256637284Y-74209141D03*
G36*
G01*
X255837284Y-68278141D02*
X257437284Y-68278141D01*
G75*
G02*
X257488284Y-68329141I0J-51000D01*
G01*
X257488284Y-69929141D01*
G75*
G02*
X257437284Y-69980141I-51000J0D01*
G01*
X255837284Y-69980141D01*
G75*
G02*
X255786284Y-69929141I0J51000D01*
G01*
X255786284Y-68329141D01*
G75*
G02*
X255837284Y-68278141I51000J0D01*
G01*
G37*
X253486511Y-72555612D03*
G36*
G01*
X252686511Y-66624612D02*
X254286511Y-66624612D01*
G75*
G02*
X254337511Y-66675612I0J-51000D01*
G01*
X254337511Y-68275612D01*
G75*
G02*
X254286511Y-68326612I-51000J0D01*
G01*
X252686511Y-68326612D01*
G75*
G02*
X252635511Y-68275612I0J51000D01*
G01*
X252635511Y-66675612D01*
G75*
G02*
X252686511Y-66624612I51000J0D01*
G01*
G37*
X250335738Y-77516199D03*
G36*
G01*
X249535738Y-71585199D02*
X251135738Y-71585199D01*
G75*
G02*
X251186738Y-71636199I0J-51000D01*
G01*
X251186738Y-73236199D01*
G75*
G02*
X251135738Y-73287199I-51000J0D01*
G01*
X249535738Y-73287199D01*
G75*
G02*
X249484738Y-73236199I0J51000D01*
G01*
X249484738Y-71636199D01*
G75*
G02*
X249535738Y-71585199I51000J0D01*
G01*
G37*
X225190409Y-77516199D03*
G36*
G01*
X224390409Y-71585199D02*
X225990409Y-71585199D01*
G75*
G02*
X226041409Y-71636199I0J-51000D01*
G01*
X226041409Y-73236199D01*
G75*
G02*
X225990409Y-73287199I-51000J0D01*
G01*
X224390409Y-73287199D01*
G75*
G02*
X224339409Y-73236199I0J51000D01*
G01*
X224339409Y-71636199D01*
G75*
G02*
X224390409Y-71585199I51000J0D01*
G01*
G37*
X244096241Y-74209141D03*
G36*
G01*
X243296241Y-68278141D02*
X244896241Y-68278141D01*
G75*
G02*
X244947241Y-68329141I0J-51000D01*
G01*
X244947241Y-69929141D01*
G75*
G02*
X244896241Y-69980141I-51000J0D01*
G01*
X243296241Y-69980141D01*
G75*
G02*
X243245241Y-69929141I0J51000D01*
G01*
X243245241Y-68329141D01*
G75*
G02*
X243296241Y-68278141I51000J0D01*
G01*
G37*
X240945468Y-72555612D03*
G36*
G01*
X240145468Y-66624612D02*
X241745468Y-66624612D01*
G75*
G02*
X241796468Y-66675612I0J-51000D01*
G01*
X241796468Y-68275612D01*
G75*
G02*
X241745468Y-68326612I-51000J0D01*
G01*
X240145468Y-68326612D01*
G75*
G02*
X240094468Y-68275612I0J51000D01*
G01*
X240094468Y-66675612D01*
G75*
G02*
X240145468Y-66624612I51000J0D01*
G01*
G37*
X262938832Y-77516199D03*
G36*
G01*
X262138832Y-71585199D02*
X263738832Y-71585199D01*
G75*
G02*
X263789832Y-71636199I0J-51000D01*
G01*
X263789832Y-73236199D01*
G75*
G02*
X263738832Y-73287199I-51000J0D01*
G01*
X262138832Y-73287199D01*
G75*
G02*
X262087832Y-73236199I0J51000D01*
G01*
X262087832Y-71636199D01*
G75*
G02*
X262138832Y-71585199I51000J0D01*
G01*
G37*
X247184965Y-75862670D03*
G36*
G01*
X246384965Y-69931670D02*
X247984965Y-69931670D01*
G75*
G02*
X248035965Y-69982670I0J-51000D01*
G01*
X248035965Y-71582670D01*
G75*
G02*
X247984965Y-71633670I-51000J0D01*
G01*
X246384965Y-71633670D01*
G75*
G02*
X246333965Y-71582670I0J51000D01*
G01*
X246333965Y-69982670D01*
G75*
G02*
X246384965Y-69931670I51000J0D01*
G01*
G37*
X286174982Y-78242196D03*
G36*
G01*
X285374982Y-72311196D02*
X286974982Y-72311196D01*
G75*
G02*
X287025982Y-72362196I0J-51000D01*
G01*
X287025982Y-73962196D01*
G75*
G02*
X286974982Y-74013196I-51000J0D01*
G01*
X285374982Y-74013196D01*
G75*
G02*
X285323982Y-73962196I0J51000D01*
G01*
X285323982Y-72362196D01*
G75*
G02*
X285374982Y-72311196I51000J0D01*
G01*
G37*
X283305310Y-78242196D03*
G36*
G01*
X282505310Y-72311196D02*
X284105310Y-72311196D01*
G75*
G02*
X284156310Y-72362196I0J-51000D01*
G01*
X284156310Y-73962196D01*
G75*
G02*
X284105310Y-74013196I-51000J0D01*
G01*
X282505310Y-74013196D01*
G75*
G02*
X282454310Y-73962196I0J51000D01*
G01*
X282454310Y-72362196D01*
G75*
G02*
X282505310Y-72311196I51000J0D01*
G01*
G37*
D27*
X134811423Y-177966640D03*
X234811223Y-177966640D03*
D28*
X134811423Y-162726640D03*
X234811223Y-162726640D03*
X234817573Y-162726640D03*
X120517573Y-162726640D03*
D27*
X234817573Y-177966640D03*
X120517573Y-177966640D03*
D14*
X206213345Y-166958110D03*
X206213345Y-104302994D03*
X298671968Y-104302994D03*
X113754723Y-104302994D03*
X315860803Y-161146960D03*
X96565888Y-161146960D03*
X354660721Y-80451243D03*
X354660721Y-61699530D03*
X57765970Y-61699530D03*
X57765970Y-80451243D03*
D29*
G36*
X252329515Y-169567078D02*
G01*
X252378841Y-169567078D01*
X252380573Y-169568078D01*
X252380255Y-169570492D01*
X252286994Y-169663753D01*
X252247304Y-169723154D01*
X252245510Y-169724039D01*
X252243847Y-169722928D01*
X252243877Y-169721100D01*
X252252437Y-169705084D01*
X252259437Y-169682009D01*
X252261800Y-169658018D01*
X252259437Y-169634027D01*
X252252437Y-169610952D01*
X252241072Y-169589689D01*
X252225777Y-169571052D01*
X252207140Y-169555756D01*
X252185876Y-169544391D01*
X252168487Y-169539116D01*
X252167120Y-169537656D01*
X252167701Y-169535742D01*
X252169458Y-169535240D01*
X252329515Y-169567078D01*
G37*
G36*
X64181081Y-169567078D02*
G01*
X64230407Y-169567078D01*
X64232139Y-169568078D01*
X64231821Y-169570492D01*
X64138560Y-169663753D01*
X64098870Y-169723154D01*
X64097076Y-169724039D01*
X64095413Y-169722928D01*
X64095443Y-169721100D01*
X64104003Y-169705084D01*
X64111003Y-169682009D01*
X64113366Y-169658018D01*
X64111003Y-169634027D01*
X64104003Y-169610952D01*
X64092638Y-169589689D01*
X64077343Y-169571052D01*
X64058706Y-169555756D01*
X64037442Y-169544391D01*
X64020053Y-169539116D01*
X64018686Y-169537656D01*
X64019267Y-169535742D01*
X64021024Y-169535240D01*
X64181081Y-169567078D01*
G37*
G36*
X253754421Y-168049748D02*
G01*
X253754571Y-168051569D01*
X253734422Y-168100214D01*
X253690478Y-168321131D01*
X253690478Y-168546369D01*
X253734422Y-168767286D01*
X253798395Y-168921731D01*
X253798134Y-168923714D01*
X253796547Y-168924496D01*
X253670050Y-168924496D01*
X253458251Y-168966625D01*
X253456357Y-168965982D01*
X253456013Y-168963898D01*
X253541648Y-168757156D01*
X253585592Y-168536239D01*
X253585592Y-168311001D01*
X253541648Y-168090084D01*
X253525695Y-168051569D01*
X253525956Y-168049586D01*
X253527804Y-168048821D01*
X253529307Y-168049861D01*
X253537871Y-168065885D01*
X253553166Y-168084521D01*
X253571803Y-168099817D01*
X253593067Y-168111182D01*
X253616142Y-168118182D01*
X253640133Y-168120545D01*
X253664124Y-168118182D01*
X253687199Y-168111182D01*
X253708463Y-168099817D01*
X253727099Y-168084522D01*
X253742395Y-168065885D01*
X253750959Y-168049861D01*
X253752658Y-168048805D01*
X253754421Y-168049748D01*
G37*
G36*
X65395545Y-168759368D02*
G01*
X65395920Y-168760976D01*
X65394980Y-168765703D01*
X65394932Y-168765893D01*
X65392439Y-168774114D01*
X65390077Y-168798108D01*
X65392442Y-168822099D01*
X65399443Y-168845173D01*
X65410810Y-168866436D01*
X65426107Y-168885072D01*
X65444745Y-168900365D01*
X65466010Y-168911730D01*
X65489083Y-168918727D01*
X65513161Y-168921098D01*
X65518391Y-168921098D01*
X65520123Y-168922098D01*
X65520123Y-168924098D01*
X65518781Y-168925060D01*
X65309817Y-168966625D01*
X65307923Y-168965982D01*
X65307579Y-168963898D01*
X65392110Y-168759821D01*
X65393697Y-168758603D01*
X65395545Y-168759368D01*
G37*
G36*
X255935781Y-168769499D02*
G01*
X255936156Y-168771107D01*
X255935578Y-168774014D01*
X255933205Y-168798099D01*
X255935568Y-168822090D01*
X255942568Y-168845165D01*
X255953933Y-168866429D01*
X255969228Y-168885065D01*
X255987865Y-168900361D01*
X256009129Y-168911726D01*
X256032204Y-168918726D01*
X256050960Y-168920573D01*
X256052586Y-168921738D01*
X256052390Y-168923728D01*
X256051154Y-168924525D01*
X255855573Y-168963428D01*
X255853679Y-168962785D01*
X255853335Y-168960701D01*
X255932346Y-168769952D01*
X255933933Y-168768734D01*
X255935781Y-168769499D01*
G37*
G36*
X251365798Y-168031943D02*
G01*
X251365948Y-168033764D01*
X251342620Y-168090084D01*
X251298676Y-168311001D01*
X251298676Y-168536239D01*
X251342620Y-168757156D01*
X251365948Y-168813476D01*
X251365687Y-168815459D01*
X251363839Y-168816224D01*
X251362336Y-168815184D01*
X251353771Y-168799158D01*
X251338476Y-168780521D01*
X251319839Y-168765226D01*
X251298575Y-168753861D01*
X251275500Y-168746861D01*
X251251509Y-168744498D01*
X251227518Y-168746861D01*
X251204443Y-168753861D01*
X251183179Y-168765226D01*
X251164542Y-168780521D01*
X251149247Y-168799158D01*
X251140682Y-168815184D01*
X251138983Y-168816240D01*
X251137220Y-168815297D01*
X251137070Y-168813476D01*
X251160398Y-168757156D01*
X251204342Y-168536239D01*
X251204342Y-168311001D01*
X251160398Y-168090084D01*
X251137070Y-168033764D01*
X251137331Y-168031781D01*
X251139179Y-168031016D01*
X251140682Y-168032056D01*
X251149247Y-168048082D01*
X251164542Y-168066719D01*
X251183179Y-168082014D01*
X251204443Y-168093379D01*
X251227518Y-168100379D01*
X251251509Y-168102742D01*
X251275500Y-168100379D01*
X251298575Y-168093379D01*
X251319839Y-168082014D01*
X251338476Y-168066719D01*
X251353771Y-168048082D01*
X251362336Y-168032056D01*
X251364035Y-168031000D01*
X251365798Y-168031943D01*
G37*
G36*
X63217364Y-168031943D02*
G01*
X63217514Y-168033764D01*
X63194186Y-168090084D01*
X63150242Y-168311001D01*
X63150242Y-168536239D01*
X63194186Y-168757156D01*
X63217514Y-168813476D01*
X63217253Y-168815459D01*
X63215405Y-168816224D01*
X63213902Y-168815184D01*
X63205337Y-168799158D01*
X63190042Y-168780521D01*
X63171405Y-168765226D01*
X63150141Y-168753861D01*
X63127066Y-168746861D01*
X63103075Y-168744498D01*
X63079084Y-168746861D01*
X63056009Y-168753861D01*
X63034745Y-168765226D01*
X63016108Y-168780521D01*
X63000813Y-168799158D01*
X62992248Y-168815184D01*
X62990549Y-168816240D01*
X62988786Y-168815297D01*
X62988636Y-168813476D01*
X63011964Y-168757156D01*
X63055908Y-168536239D01*
X63055908Y-168311001D01*
X63011964Y-168090084D01*
X62988636Y-168033764D01*
X62988897Y-168031781D01*
X62990745Y-168031016D01*
X62992248Y-168032056D01*
X63000813Y-168048082D01*
X63016108Y-168066719D01*
X63034745Y-168082014D01*
X63056009Y-168093379D01*
X63079084Y-168100379D01*
X63103075Y-168102742D01*
X63127066Y-168100379D01*
X63150141Y-168093379D01*
X63171405Y-168082014D01*
X63190042Y-168066719D01*
X63205337Y-168048082D01*
X63213902Y-168032056D01*
X63215601Y-168031000D01*
X63217364Y-168031943D01*
G37*
G36*
X257715798Y-165491943D02*
G01*
X257715948Y-165493764D01*
X257692620Y-165550084D01*
X257648676Y-165771001D01*
X257648676Y-165996239D01*
X257692620Y-166217156D01*
X257715948Y-166273476D01*
X257715687Y-166275459D01*
X257713839Y-166276224D01*
X257712336Y-166275184D01*
X257703771Y-166259158D01*
X257688476Y-166240521D01*
X257669839Y-166225226D01*
X257648575Y-166213861D01*
X257625500Y-166206861D01*
X257601509Y-166204498D01*
X257577518Y-166206861D01*
X257554443Y-166213861D01*
X257533179Y-166225226D01*
X257514542Y-166240521D01*
X257499247Y-166259158D01*
X257490682Y-166275184D01*
X257488983Y-166276240D01*
X257487220Y-166275297D01*
X257487070Y-166273476D01*
X257510398Y-166217156D01*
X257554342Y-165996239D01*
X257554342Y-165771001D01*
X257510398Y-165550084D01*
X257487070Y-165493764D01*
X257487331Y-165491781D01*
X257489179Y-165491016D01*
X257490682Y-165492056D01*
X257499247Y-165508082D01*
X257514542Y-165526719D01*
X257533179Y-165542014D01*
X257554443Y-165553379D01*
X257577518Y-165560379D01*
X257601509Y-165562742D01*
X257625500Y-165560379D01*
X257648575Y-165553379D01*
X257669839Y-165542014D01*
X257688476Y-165526719D01*
X257703771Y-165508082D01*
X257712336Y-165492056D01*
X257714035Y-165491000D01*
X257715798Y-165491943D01*
G37*
G36*
X69567364Y-165491943D02*
G01*
X69567514Y-165493764D01*
X69544186Y-165550084D01*
X69500242Y-165771001D01*
X69500242Y-165996239D01*
X69544186Y-166217156D01*
X69567514Y-166273476D01*
X69567253Y-166275459D01*
X69565405Y-166276224D01*
X69563902Y-166275184D01*
X69555337Y-166259158D01*
X69540042Y-166240521D01*
X69521405Y-166225226D01*
X69500141Y-166213861D01*
X69477066Y-166206861D01*
X69453075Y-166204498D01*
X69429084Y-166206861D01*
X69406009Y-166213861D01*
X69384745Y-166225226D01*
X69366108Y-166240521D01*
X69350813Y-166259158D01*
X69342248Y-166275184D01*
X69340549Y-166276240D01*
X69338786Y-166275297D01*
X69338636Y-166273476D01*
X69361964Y-166217156D01*
X69405908Y-165996239D01*
X69405908Y-165771001D01*
X69361964Y-165550084D01*
X69338636Y-165493764D01*
X69338897Y-165491781D01*
X69340745Y-165491016D01*
X69342248Y-165492056D01*
X69350813Y-165508082D01*
X69366108Y-165526719D01*
X69384745Y-165542014D01*
X69406009Y-165553379D01*
X69429084Y-165560379D01*
X69453075Y-165562742D01*
X69477066Y-165560379D01*
X69500141Y-165553379D01*
X69521405Y-165542014D01*
X69540042Y-165526719D01*
X69555337Y-165508082D01*
X69563902Y-165492056D01*
X69565601Y-165491000D01*
X69567364Y-165491943D01*
G37*
G36*
X260104421Y-165509748D02*
G01*
X260104571Y-165511569D01*
X260084422Y-165560214D01*
X260040478Y-165781131D01*
X260040478Y-166006369D01*
X260084422Y-166227286D01*
X260100375Y-166265801D01*
X260100114Y-166267784D01*
X260098266Y-166268549D01*
X260096763Y-166267509D01*
X260088199Y-166251485D01*
X260072904Y-166232849D01*
X260054267Y-166217553D01*
X260033003Y-166206188D01*
X260009928Y-166199188D01*
X259985937Y-166196825D01*
X259961946Y-166199188D01*
X259938871Y-166206188D01*
X259917607Y-166217553D01*
X259898971Y-166232848D01*
X259883675Y-166251485D01*
X259875111Y-166267509D01*
X259873412Y-166268565D01*
X259871649Y-166267622D01*
X259871499Y-166265801D01*
X259891648Y-166217156D01*
X259935592Y-165996239D01*
X259935592Y-165771001D01*
X259891648Y-165550084D01*
X259875695Y-165511569D01*
X259875956Y-165509586D01*
X259877804Y-165508821D01*
X259879307Y-165509861D01*
X259887871Y-165525885D01*
X259903166Y-165544521D01*
X259921803Y-165559817D01*
X259943067Y-165571182D01*
X259966142Y-165578182D01*
X259990133Y-165580545D01*
X260014124Y-165578182D01*
X260037199Y-165571182D01*
X260058463Y-165559817D01*
X260077099Y-165544522D01*
X260092395Y-165525885D01*
X260100959Y-165509861D01*
X260102658Y-165508805D01*
X260104421Y-165509748D01*
G37*
G36*
X81201919Y-152128757D02*
G01*
X81202562Y-152129871D01*
X81213471Y-152184714D01*
X81280912Y-152347531D01*
X81302302Y-152379545D01*
X81302433Y-152381541D01*
X81300770Y-152382652D01*
X81299093Y-152381925D01*
X81287567Y-152367879D01*
X81268930Y-152352583D01*
X81247666Y-152341218D01*
X81224591Y-152334218D01*
X81200600Y-152331855D01*
X81176609Y-152334218D01*
X81153534Y-152341218D01*
X81132271Y-152352583D01*
X81113634Y-152367878D01*
X81102106Y-152381925D01*
X81100234Y-152382629D01*
X81098688Y-152381360D01*
X81098897Y-152379545D01*
X81120288Y-152347531D01*
X81187729Y-152184714D01*
X81198638Y-152129871D01*
X81199957Y-152128367D01*
X81201919Y-152128757D01*
G37*
G36*
X81102107Y-151465575D02*
G01*
X81113633Y-151479621D01*
X81132270Y-151494917D01*
X81153534Y-151506282D01*
X81176609Y-151513282D01*
X81200600Y-151515645D01*
X81224591Y-151513282D01*
X81247666Y-151506282D01*
X81268929Y-151494917D01*
X81287566Y-151479622D01*
X81299094Y-151465575D01*
X81300966Y-151464871D01*
X81302512Y-151466140D01*
X81302303Y-151467955D01*
X81280912Y-151499969D01*
X81213471Y-151662786D01*
X81202562Y-151717629D01*
X81201243Y-151719133D01*
X81199281Y-151718743D01*
X81198638Y-151717629D01*
X81187729Y-151662786D01*
X81120288Y-151499969D01*
X81098898Y-151467955D01*
X81098767Y-151465959D01*
X81100430Y-151464848D01*
X81102107Y-151465575D01*
G37*
G36*
X312183069Y-133076998D02*
G01*
X312183712Y-133078112D01*
X312194971Y-133134714D01*
X312262412Y-133297531D01*
X312283452Y-133329020D01*
X312283583Y-133331016D01*
X312281920Y-133332127D01*
X312280243Y-133331400D01*
X312268717Y-133317355D01*
X312250080Y-133302060D01*
X312228816Y-133290695D01*
X312205741Y-133283695D01*
X312181750Y-133281332D01*
X312157759Y-133283695D01*
X312134684Y-133290695D01*
X312113420Y-133302060D01*
X312094783Y-133317355D01*
X312083257Y-133331400D01*
X312081385Y-133332104D01*
X312079839Y-133330836D01*
X312080048Y-133329020D01*
X312101088Y-133297531D01*
X312168529Y-133134714D01*
X312179788Y-133078112D01*
X312181107Y-133076608D01*
X312183069Y-133076998D01*
G37*
G36*
X312083257Y-132416100D02*
G01*
X312094783Y-132430145D01*
X312113420Y-132445440D01*
X312134684Y-132456805D01*
X312157759Y-132463805D01*
X312181750Y-132466168D01*
X312205741Y-132463805D01*
X312228816Y-132456805D01*
X312250080Y-132445440D01*
X312268717Y-132430145D01*
X312280243Y-132416100D01*
X312282115Y-132415396D01*
X312283661Y-132416664D01*
X312283452Y-132418480D01*
X312262412Y-132449969D01*
X312194971Y-132612786D01*
X312183712Y-132669388D01*
X312182393Y-132670892D01*
X312180431Y-132670502D01*
X312179788Y-132669388D01*
X312168529Y-132612786D01*
X312101088Y-132449969D01*
X312080048Y-132418480D01*
X312079917Y-132416484D01*
X312081580Y-132415373D01*
X312083257Y-132416100D01*
G37*
G36*
X328636763Y-125156768D02*
G01*
X328530141Y-125414176D01*
X328528554Y-125415394D01*
X328526706Y-125414629D01*
X328526331Y-125413022D01*
X328526515Y-125412094D01*
X328528888Y-125388007D01*
X328526525Y-125364016D01*
X328519525Y-125340941D01*
X328508160Y-125319677D01*
X328492865Y-125301040D01*
X328474228Y-125285745D01*
X328452964Y-125274380D01*
X328429889Y-125267380D01*
X328405898Y-125265017D01*
X328381907Y-125267380D01*
X328364525Y-125272653D01*
X328362577Y-125272199D01*
X328361996Y-125270285D01*
X328363179Y-125268891D01*
X328624138Y-125160798D01*
X328633804Y-125154340D01*
X328635800Y-125154209D01*
X328636763Y-125156768D01*
G37*
G36*
X329525115Y-124183069D02*
G01*
X329525442Y-124184868D01*
X329520169Y-124202248D01*
X329517806Y-124226239D01*
X329520169Y-124250230D01*
X329527169Y-124273305D01*
X329538534Y-124294569D01*
X329553829Y-124313206D01*
X329572466Y-124328501D01*
X329593730Y-124339866D01*
X329616805Y-124346866D01*
X329640796Y-124349229D01*
X329658881Y-124347447D01*
X329660703Y-124348272D01*
X329660899Y-124350262D01*
X329659467Y-124351399D01*
X329578343Y-124367536D01*
X329383877Y-124448087D01*
X329381894Y-124447826D01*
X329381449Y-124445128D01*
X329465298Y-124319638D01*
X329521680Y-124183522D01*
X329523267Y-124182304D01*
X329525115Y-124183069D01*
G37*
G36*
X284695771Y-69514690D02*
G01*
X284696536Y-69516538D01*
X284695496Y-69518041D01*
X284679472Y-69526605D01*
X284660835Y-69541901D01*
X284645540Y-69560538D01*
X284634175Y-69581801D01*
X284627175Y-69604876D01*
X284624812Y-69628867D01*
X284627175Y-69652858D01*
X284634175Y-69675933D01*
X284645540Y-69697197D01*
X284660836Y-69715834D01*
X284679473Y-69731129D01*
X284700736Y-69742494D01*
X284723811Y-69749494D01*
X284747998Y-69751876D01*
X284749624Y-69753041D01*
X284749428Y-69755031D01*
X284747802Y-69755866D01*
X284207550Y-69755866D01*
X284205818Y-69754866D01*
X284205818Y-69752866D01*
X284207354Y-69751876D01*
X284231541Y-69749494D01*
X284254616Y-69742494D01*
X284275880Y-69731129D01*
X284294517Y-69715834D01*
X284309812Y-69697197D01*
X284321177Y-69675933D01*
X284328177Y-69652858D01*
X284330540Y-69628867D01*
X284328177Y-69604876D01*
X284321177Y-69581801D01*
X284309812Y-69560537D01*
X284294517Y-69541900D01*
X284275880Y-69526605D01*
X284259856Y-69518041D01*
X284258800Y-69516342D01*
X284259743Y-69514579D01*
X284261564Y-69514429D01*
X284289283Y-69525910D01*
X284414066Y-69550731D01*
X284541286Y-69550731D01*
X284666069Y-69525910D01*
X284693788Y-69514429D01*
X284695771Y-69514690D01*
G37*
G36*
X274893306Y-66016385D02*
G01*
X274903401Y-66031492D01*
X274920449Y-66048538D01*
X274940497Y-66061932D01*
X274962771Y-66071157D01*
X274986421Y-66075861D01*
X275010527Y-66075860D01*
X275034177Y-66071154D01*
X275056451Y-66061927D01*
X275076498Y-66048531D01*
X275093544Y-66031483D01*
X275103629Y-66016389D01*
X275105423Y-66015504D01*
X275107086Y-66016615D01*
X275107056Y-66018443D01*
X275077947Y-66072902D01*
X275056663Y-66143063D01*
X275049468Y-66216116D01*
X275049468Y-66565928D01*
X275056663Y-66638980D01*
X275077946Y-66709141D01*
X275107056Y-66763602D01*
X275106990Y-66765601D01*
X275105227Y-66766544D01*
X275103629Y-66765656D01*
X275093540Y-66750557D01*
X275076493Y-66733510D01*
X275056446Y-66720115D01*
X275034172Y-66710889D01*
X275010522Y-66706184D01*
X274986416Y-66706184D01*
X274962765Y-66710888D01*
X274940492Y-66720114D01*
X274920444Y-66733509D01*
X274903397Y-66750556D01*
X274893307Y-66765656D01*
X274891513Y-66766541D01*
X274889850Y-66765430D01*
X274889880Y-66763602D01*
X274918990Y-66709142D01*
X274940273Y-66638981D01*
X274947468Y-66565928D01*
X274947468Y-66216116D01*
X274940273Y-66143063D01*
X274918990Y-66072902D01*
X274889879Y-66018439D01*
X274889945Y-66016440D01*
X274891708Y-66015497D01*
X274893306Y-66016385D01*
G37*
G36*
X279993306Y-66016385D02*
G01*
X280003401Y-66031492D01*
X280020449Y-66048538D01*
X280040497Y-66061932D01*
X280062771Y-66071157D01*
X280086421Y-66075861D01*
X280110527Y-66075860D01*
X280134177Y-66071154D01*
X280156451Y-66061927D01*
X280176498Y-66048531D01*
X280193544Y-66031483D01*
X280203629Y-66016389D01*
X280205423Y-66015504D01*
X280207086Y-66016615D01*
X280207056Y-66018443D01*
X280177947Y-66072902D01*
X280156663Y-66143063D01*
X280149468Y-66216116D01*
X280149468Y-66565928D01*
X280156663Y-66638980D01*
X280177946Y-66709141D01*
X280207056Y-66763602D01*
X280206990Y-66765601D01*
X280205227Y-66766544D01*
X280203629Y-66765656D01*
X280193540Y-66750557D01*
X280176493Y-66733510D01*
X280156446Y-66720115D01*
X280134172Y-66710889D01*
X280110522Y-66706184D01*
X280086416Y-66706184D01*
X280062765Y-66710888D01*
X280040492Y-66720114D01*
X280020444Y-66733509D01*
X280003397Y-66750556D01*
X279993307Y-66765656D01*
X279991513Y-66766541D01*
X279989850Y-66765430D01*
X279989880Y-66763602D01*
X280018990Y-66709142D01*
X280040273Y-66638981D01*
X280047468Y-66565928D01*
X280047468Y-66216116D01*
X280040273Y-66143063D01*
X280018990Y-66072902D01*
X279989879Y-66018439D01*
X279989945Y-66016440D01*
X279991708Y-66015497D01*
X279993306Y-66016385D01*
G37*
G36*
X275743306Y-66016385D02*
G01*
X275753401Y-66031492D01*
X275770449Y-66048538D01*
X275790497Y-66061932D01*
X275812771Y-66071157D01*
X275836421Y-66075861D01*
X275860527Y-66075860D01*
X275884177Y-66071154D01*
X275906451Y-66061927D01*
X275926498Y-66048531D01*
X275943544Y-66031483D01*
X275953629Y-66016389D01*
X275955423Y-66015504D01*
X275957086Y-66016615D01*
X275957056Y-66018443D01*
X275927947Y-66072902D01*
X275906663Y-66143063D01*
X275899468Y-66216116D01*
X275899468Y-66565928D01*
X275906663Y-66638980D01*
X275927946Y-66709141D01*
X275957056Y-66763602D01*
X275956990Y-66765601D01*
X275955227Y-66766544D01*
X275953629Y-66765656D01*
X275943540Y-66750557D01*
X275926493Y-66733510D01*
X275906446Y-66720115D01*
X275884172Y-66710889D01*
X275860522Y-66706184D01*
X275836416Y-66706184D01*
X275812765Y-66710888D01*
X275790492Y-66720114D01*
X275770444Y-66733509D01*
X275753397Y-66750556D01*
X275743307Y-66765656D01*
X275741513Y-66766541D01*
X275739850Y-66765430D01*
X275739880Y-66763602D01*
X275768990Y-66709142D01*
X275790273Y-66638981D01*
X275797468Y-66565928D01*
X275797468Y-66216116D01*
X275790273Y-66143063D01*
X275768990Y-66072902D01*
X275739879Y-66018439D01*
X275739945Y-66016440D01*
X275741708Y-66015497D01*
X275743306Y-66016385D01*
G37*
G36*
X279143306Y-66016385D02*
G01*
X279153401Y-66031492D01*
X279170449Y-66048538D01*
X279190497Y-66061932D01*
X279212771Y-66071157D01*
X279236421Y-66075861D01*
X279260527Y-66075860D01*
X279284177Y-66071154D01*
X279306451Y-66061927D01*
X279326498Y-66048531D01*
X279343544Y-66031483D01*
X279353629Y-66016389D01*
X279355423Y-66015504D01*
X279357086Y-66016615D01*
X279357056Y-66018443D01*
X279327947Y-66072902D01*
X279306663Y-66143063D01*
X279299468Y-66216116D01*
X279299468Y-66565928D01*
X279306663Y-66638980D01*
X279327946Y-66709141D01*
X279357056Y-66763602D01*
X279356990Y-66765601D01*
X279355227Y-66766544D01*
X279353629Y-66765656D01*
X279343540Y-66750557D01*
X279326493Y-66733510D01*
X279306446Y-66720115D01*
X279284172Y-66710889D01*
X279260522Y-66706184D01*
X279236416Y-66706184D01*
X279212765Y-66710888D01*
X279190492Y-66720114D01*
X279170444Y-66733509D01*
X279153397Y-66750556D01*
X279143307Y-66765656D01*
X279141513Y-66766541D01*
X279139850Y-66765430D01*
X279139880Y-66763602D01*
X279168990Y-66709142D01*
X279190273Y-66638981D01*
X279197468Y-66565928D01*
X279197468Y-66216116D01*
X279190273Y-66143063D01*
X279168990Y-66072902D01*
X279139879Y-66018439D01*
X279139945Y-66016440D01*
X279141708Y-66015497D01*
X279143306Y-66016385D01*
G37*
G36*
X276593306Y-66016385D02*
G01*
X276603401Y-66031492D01*
X276620449Y-66048538D01*
X276640497Y-66061932D01*
X276662771Y-66071157D01*
X276686421Y-66075861D01*
X276710527Y-66075860D01*
X276734177Y-66071154D01*
X276756451Y-66061927D01*
X276776498Y-66048531D01*
X276793544Y-66031483D01*
X276803629Y-66016389D01*
X276805423Y-66015504D01*
X276807086Y-66016615D01*
X276807056Y-66018443D01*
X276777947Y-66072902D01*
X276756663Y-66143063D01*
X276749468Y-66216116D01*
X276749468Y-66565928D01*
X276756663Y-66638980D01*
X276777946Y-66709141D01*
X276807056Y-66763602D01*
X276806990Y-66765601D01*
X276805227Y-66766544D01*
X276803629Y-66765656D01*
X276793540Y-66750557D01*
X276776493Y-66733510D01*
X276756446Y-66720115D01*
X276734172Y-66710889D01*
X276710522Y-66706184D01*
X276686416Y-66706184D01*
X276662765Y-66710888D01*
X276640492Y-66720114D01*
X276620444Y-66733509D01*
X276603397Y-66750556D01*
X276593307Y-66765656D01*
X276591513Y-66766541D01*
X276589850Y-66765430D01*
X276589880Y-66763602D01*
X276618990Y-66709142D01*
X276640273Y-66638981D01*
X276647468Y-66565928D01*
X276647468Y-66216116D01*
X276640273Y-66143063D01*
X276618990Y-66072902D01*
X276589879Y-66018439D01*
X276589945Y-66016440D01*
X276591708Y-66015497D01*
X276593306Y-66016385D01*
G37*
G36*
X278293306Y-66016385D02*
G01*
X278303401Y-66031492D01*
X278320449Y-66048538D01*
X278340497Y-66061932D01*
X278362771Y-66071157D01*
X278386421Y-66075861D01*
X278410527Y-66075860D01*
X278434177Y-66071154D01*
X278456451Y-66061927D01*
X278476498Y-66048531D01*
X278493544Y-66031483D01*
X278503629Y-66016389D01*
X278505423Y-66015504D01*
X278507086Y-66016615D01*
X278507056Y-66018443D01*
X278477947Y-66072902D01*
X278456663Y-66143063D01*
X278449468Y-66216116D01*
X278449468Y-66565928D01*
X278456663Y-66638980D01*
X278477946Y-66709141D01*
X278507056Y-66763602D01*
X278506990Y-66765601D01*
X278505227Y-66766544D01*
X278503629Y-66765656D01*
X278493540Y-66750557D01*
X278476493Y-66733510D01*
X278456446Y-66720115D01*
X278434172Y-66710889D01*
X278410522Y-66706184D01*
X278386416Y-66706184D01*
X278362765Y-66710888D01*
X278340492Y-66720114D01*
X278320444Y-66733509D01*
X278303397Y-66750556D01*
X278293307Y-66765656D01*
X278291513Y-66766541D01*
X278289850Y-66765430D01*
X278289880Y-66763602D01*
X278318990Y-66709142D01*
X278340273Y-66638981D01*
X278347468Y-66565928D01*
X278347468Y-66216116D01*
X278340273Y-66143063D01*
X278318990Y-66072902D01*
X278289879Y-66018439D01*
X278289945Y-66016440D01*
X278291708Y-66015497D01*
X278293306Y-66016385D01*
G37*
G36*
X277443306Y-66016385D02*
G01*
X277453401Y-66031492D01*
X277470449Y-66048538D01*
X277490497Y-66061932D01*
X277512771Y-66071157D01*
X277536421Y-66075861D01*
X277560527Y-66075860D01*
X277584177Y-66071154D01*
X277606451Y-66061927D01*
X277626498Y-66048531D01*
X277643544Y-66031483D01*
X277653629Y-66016389D01*
X277655423Y-66015504D01*
X277657086Y-66016615D01*
X277657056Y-66018443D01*
X277627947Y-66072902D01*
X277606663Y-66143063D01*
X277599468Y-66216116D01*
X277599468Y-66565928D01*
X277606663Y-66638980D01*
X277627946Y-66709141D01*
X277657056Y-66763602D01*
X277656990Y-66765601D01*
X277655227Y-66766544D01*
X277653629Y-66765656D01*
X277643540Y-66750557D01*
X277626493Y-66733510D01*
X277606446Y-66720115D01*
X277584172Y-66710889D01*
X277560522Y-66706184D01*
X277536416Y-66706184D01*
X277512765Y-66710888D01*
X277490492Y-66720114D01*
X277470444Y-66733509D01*
X277453397Y-66750556D01*
X277443307Y-66765656D01*
X277441513Y-66766541D01*
X277439850Y-66765430D01*
X277439880Y-66763602D01*
X277468990Y-66709142D01*
X277490273Y-66638981D01*
X277497468Y-66565928D01*
X277497468Y-66216116D01*
X277490273Y-66143063D01*
X277468990Y-66072902D01*
X277439879Y-66018439D01*
X277439945Y-66016440D01*
X277441708Y-66015497D01*
X277443306Y-66016385D01*
G37*
G36*
X276588306Y-64691385D02*
G01*
X276598401Y-64706492D01*
X276615449Y-64723538D01*
X276635497Y-64736932D01*
X276657771Y-64746157D01*
X276681421Y-64750861D01*
X276705527Y-64750860D01*
X276729177Y-64746154D01*
X276751451Y-64736927D01*
X276771498Y-64723531D01*
X276788544Y-64706483D01*
X276798629Y-64691389D01*
X276800423Y-64690504D01*
X276802086Y-64691615D01*
X276802056Y-64693443D01*
X276772947Y-64747902D01*
X276751663Y-64818063D01*
X276744468Y-64891116D01*
X276744468Y-65240928D01*
X276751663Y-65313980D01*
X276772946Y-65384141D01*
X276802056Y-65438602D01*
X276801990Y-65440601D01*
X276800227Y-65441544D01*
X276798629Y-65440656D01*
X276788540Y-65425557D01*
X276771493Y-65408510D01*
X276751446Y-65395115D01*
X276729172Y-65385889D01*
X276705522Y-65381184D01*
X276681416Y-65381184D01*
X276657765Y-65385888D01*
X276635492Y-65395114D01*
X276615444Y-65408509D01*
X276598397Y-65425556D01*
X276588307Y-65440656D01*
X276586513Y-65441541D01*
X276584850Y-65440430D01*
X276584880Y-65438602D01*
X276613990Y-65384142D01*
X276635273Y-65313981D01*
X276642468Y-65240928D01*
X276642468Y-64891116D01*
X276635273Y-64818063D01*
X276613990Y-64747902D01*
X276584879Y-64693439D01*
X276584945Y-64691440D01*
X276586708Y-64690497D01*
X276588306Y-64691385D01*
G37*
G36*
X279138306Y-64691385D02*
G01*
X279148401Y-64706492D01*
X279165449Y-64723538D01*
X279185497Y-64736932D01*
X279207771Y-64746157D01*
X279231421Y-64750861D01*
X279255527Y-64750860D01*
X279279177Y-64746154D01*
X279301451Y-64736927D01*
X279321498Y-64723531D01*
X279338544Y-64706483D01*
X279348629Y-64691389D01*
X279350423Y-64690504D01*
X279352086Y-64691615D01*
X279352056Y-64693443D01*
X279322947Y-64747902D01*
X279301663Y-64818063D01*
X279294468Y-64891116D01*
X279294468Y-65240928D01*
X279301663Y-65313980D01*
X279322946Y-65384141D01*
X279352056Y-65438602D01*
X279351990Y-65440601D01*
X279350227Y-65441544D01*
X279348629Y-65440656D01*
X279338540Y-65425557D01*
X279321493Y-65408510D01*
X279301446Y-65395115D01*
X279279172Y-65385889D01*
X279255522Y-65381184D01*
X279231416Y-65381184D01*
X279207765Y-65385888D01*
X279185492Y-65395114D01*
X279165444Y-65408509D01*
X279148397Y-65425556D01*
X279138307Y-65440656D01*
X279136513Y-65441541D01*
X279134850Y-65440430D01*
X279134880Y-65438602D01*
X279163990Y-65384142D01*
X279185273Y-65313981D01*
X279192468Y-65240928D01*
X279192468Y-64891116D01*
X279185273Y-64818063D01*
X279163990Y-64747902D01*
X279134879Y-64693439D01*
X279134945Y-64691440D01*
X279136708Y-64690497D01*
X279138306Y-64691385D01*
G37*
G36*
X278288306Y-64691385D02*
G01*
X278298401Y-64706492D01*
X278315449Y-64723538D01*
X278335497Y-64736932D01*
X278357771Y-64746157D01*
X278381421Y-64750861D01*
X278405527Y-64750860D01*
X278429177Y-64746154D01*
X278451451Y-64736927D01*
X278471498Y-64723531D01*
X278488544Y-64706483D01*
X278498629Y-64691389D01*
X278500423Y-64690504D01*
X278502086Y-64691615D01*
X278502056Y-64693443D01*
X278472947Y-64747902D01*
X278451663Y-64818063D01*
X278444468Y-64891116D01*
X278444468Y-65240928D01*
X278451663Y-65313980D01*
X278472946Y-65384141D01*
X278502056Y-65438602D01*
X278501990Y-65440601D01*
X278500227Y-65441544D01*
X278498629Y-65440656D01*
X278488540Y-65425557D01*
X278471493Y-65408510D01*
X278451446Y-65395115D01*
X278429172Y-65385889D01*
X278405522Y-65381184D01*
X278381416Y-65381184D01*
X278357765Y-65385888D01*
X278335492Y-65395114D01*
X278315444Y-65408509D01*
X278298397Y-65425556D01*
X278288307Y-65440656D01*
X278286513Y-65441541D01*
X278284850Y-65440430D01*
X278284880Y-65438602D01*
X278313990Y-65384142D01*
X278335273Y-65313981D01*
X278342468Y-65240928D01*
X278342468Y-64891116D01*
X278335273Y-64818063D01*
X278313990Y-64747902D01*
X278284879Y-64693439D01*
X278284945Y-64691440D01*
X278286708Y-64690497D01*
X278288306Y-64691385D01*
G37*
G36*
X277438306Y-64691385D02*
G01*
X277448401Y-64706492D01*
X277465449Y-64723538D01*
X277485497Y-64736932D01*
X277507771Y-64746157D01*
X277531421Y-64750861D01*
X277555527Y-64750860D01*
X277579177Y-64746154D01*
X277601451Y-64736927D01*
X277621498Y-64723531D01*
X277638544Y-64706483D01*
X277648629Y-64691389D01*
X277650423Y-64690504D01*
X277652086Y-64691615D01*
X277652056Y-64693443D01*
X277622947Y-64747902D01*
X277601663Y-64818063D01*
X277594468Y-64891116D01*
X277594468Y-65240928D01*
X277601663Y-65313980D01*
X277622946Y-65384141D01*
X277652056Y-65438602D01*
X277651990Y-65440601D01*
X277650227Y-65441544D01*
X277648629Y-65440656D01*
X277638540Y-65425557D01*
X277621493Y-65408510D01*
X277601446Y-65395115D01*
X277579172Y-65385889D01*
X277555522Y-65381184D01*
X277531416Y-65381184D01*
X277507765Y-65385888D01*
X277485492Y-65395114D01*
X277465444Y-65408509D01*
X277448397Y-65425556D01*
X277438307Y-65440656D01*
X277436513Y-65441541D01*
X277434850Y-65440430D01*
X277434880Y-65438602D01*
X277463990Y-65384142D01*
X277485273Y-65313981D01*
X277492468Y-65240928D01*
X277492468Y-64891116D01*
X277485273Y-64818063D01*
X277463990Y-64747902D01*
X277434879Y-64693439D01*
X277434945Y-64691440D01*
X277436708Y-64690497D01*
X277438306Y-64691385D01*
G37*
G36*
X275738306Y-64691385D02*
G01*
X275748401Y-64706492D01*
X275765449Y-64723538D01*
X275785497Y-64736932D01*
X275807771Y-64746157D01*
X275831421Y-64750861D01*
X275855527Y-64750860D01*
X275879177Y-64746154D01*
X275901451Y-64736927D01*
X275921498Y-64723531D01*
X275938544Y-64706483D01*
X275948629Y-64691389D01*
X275950423Y-64690504D01*
X275952086Y-64691615D01*
X275952056Y-64693443D01*
X275922947Y-64747902D01*
X275901663Y-64818063D01*
X275894468Y-64891116D01*
X275894468Y-65240928D01*
X275901663Y-65313980D01*
X275922946Y-65384141D01*
X275952056Y-65438602D01*
X275951990Y-65440601D01*
X275950227Y-65441544D01*
X275948629Y-65440656D01*
X275938540Y-65425557D01*
X275921493Y-65408510D01*
X275901446Y-65395115D01*
X275879172Y-65385889D01*
X275855522Y-65381184D01*
X275831416Y-65381184D01*
X275807765Y-65385888D01*
X275785492Y-65395114D01*
X275765444Y-65408509D01*
X275748397Y-65425556D01*
X275738307Y-65440656D01*
X275736513Y-65441541D01*
X275734850Y-65440430D01*
X275734880Y-65438602D01*
X275763990Y-65384142D01*
X275785273Y-65313981D01*
X275792468Y-65240928D01*
X275792468Y-64891116D01*
X275785273Y-64818063D01*
X275763990Y-64747902D01*
X275734879Y-64693439D01*
X275734945Y-64691440D01*
X275736708Y-64690497D01*
X275738306Y-64691385D01*
G37*
G36*
X274888306Y-64691385D02*
G01*
X274898401Y-64706492D01*
X274915449Y-64723538D01*
X274935497Y-64736932D01*
X274957771Y-64746157D01*
X274981421Y-64750861D01*
X275005527Y-64750860D01*
X275029177Y-64746154D01*
X275051451Y-64736927D01*
X275071498Y-64723531D01*
X275088544Y-64706483D01*
X275098629Y-64691389D01*
X275100423Y-64690504D01*
X275102086Y-64691615D01*
X275102056Y-64693443D01*
X275072947Y-64747902D01*
X275051663Y-64818063D01*
X275044468Y-64891116D01*
X275044468Y-65240928D01*
X275051663Y-65313980D01*
X275072946Y-65384141D01*
X275102056Y-65438602D01*
X275101990Y-65440601D01*
X275100227Y-65441544D01*
X275098629Y-65440656D01*
X275088540Y-65425557D01*
X275071493Y-65408510D01*
X275051446Y-65395115D01*
X275029172Y-65385889D01*
X275005522Y-65381184D01*
X274981416Y-65381184D01*
X274957765Y-65385888D01*
X274935492Y-65395114D01*
X274915444Y-65408509D01*
X274898397Y-65425556D01*
X274888307Y-65440656D01*
X274886513Y-65441541D01*
X274884850Y-65440430D01*
X274884880Y-65438602D01*
X274913990Y-65384142D01*
X274935273Y-65313981D01*
X274942468Y-65240928D01*
X274942468Y-64891116D01*
X274935273Y-64818063D01*
X274913990Y-64747902D01*
X274884879Y-64693439D01*
X274884945Y-64691440D01*
X274886708Y-64690497D01*
X274888306Y-64691385D01*
G37*
G36*
X279990805Y-64696061D02*
G01*
X280000899Y-64711167D01*
X280017946Y-64728214D01*
X280037994Y-64741608D01*
X280060268Y-64750834D01*
X280083918Y-64755538D01*
X280108024Y-64755538D01*
X280131674Y-64750833D01*
X280153948Y-64741606D01*
X280173995Y-64728211D01*
X280191042Y-64711164D01*
X280201126Y-64696072D01*
X280202920Y-64695187D01*
X280204583Y-64696298D01*
X280204553Y-64698126D01*
X280177947Y-64747902D01*
X280156663Y-64818063D01*
X280149468Y-64891116D01*
X280149468Y-65240928D01*
X280156663Y-65313980D01*
X280177946Y-65384141D01*
X280204557Y-65433928D01*
X280204491Y-65435927D01*
X280202728Y-65436870D01*
X280201130Y-65435982D01*
X280191040Y-65420880D01*
X280173993Y-65403833D01*
X280153945Y-65390438D01*
X280131671Y-65381211D01*
X280108021Y-65376507D01*
X280083915Y-65376507D01*
X280060265Y-65381211D01*
X280037991Y-65390438D01*
X280017944Y-65403832D01*
X280000897Y-65420879D01*
X279990806Y-65435982D01*
X279989012Y-65436867D01*
X279987349Y-65435756D01*
X279987379Y-65433928D01*
X280013990Y-65384142D01*
X280035273Y-65313981D01*
X280042468Y-65240928D01*
X280042468Y-64891116D01*
X280035273Y-64818063D01*
X280013990Y-64747902D01*
X279987378Y-64698115D01*
X279987444Y-64696116D01*
X279989207Y-64695173D01*
X279990805Y-64696061D01*
G37*
M02*
