%TF.GenerationSoftware,KiCad,Pcbnew,5.1.10-88a1d61d58~88~ubuntu21.04.1*%
%TF.CreationDate,2021-06-02T23:16:48+02:00*%
%TF.ProjectId,discipline-plate-blocker,64697363-6970-46c6-996e-652d706c6174,rev?*%
%TF.SameCoordinates,Original*%
%TF.FileFunction,Paste,Bot*%
%TF.FilePolarity,Positive*%
%FSLAX46Y46*%
G04 Gerber Fmt 4.6, Leading zero omitted, Abs format (unit mm)*
G04 Created by KiCad (PCBNEW 5.1.10-88a1d61d58~88~ubuntu21.04.1) date 2021-06-02 23:16:48*
%MOMM*%
%LPD*%
G01*
G04 APERTURE LIST*
%TA.AperFunction,Profile*%
%ADD10C,0.200000*%
%TD*%
%TA.AperFunction,Profile*%
%ADD11C,0.150000*%
%TD*%
G04 APERTURE END LIST*
D10*
X72709300Y-164998400D02*
X72709300Y-176998400D01*
X58709300Y-164998400D02*
G75*
G02*
X59709300Y-163998400I1000000J0D01*
G01*
X71709300Y-177998400D02*
X59709300Y-177998400D01*
X72709300Y-176998400D02*
G75*
G02*
X71709300Y-177998400I-1000000J0D01*
G01*
X59709300Y-177998400D02*
G75*
G02*
X58709300Y-176998400I0J1000000D01*
G01*
X59709300Y-163998400D02*
X71709300Y-163998400D01*
X71709300Y-163998400D02*
G75*
G02*
X72709300Y-164998400I0J-1000000D01*
G01*
X58709300Y-176998400D02*
X58709300Y-164998400D01*
X96519300Y-164998400D02*
X96519300Y-176998400D01*
X82519300Y-164998400D02*
G75*
G02*
X83519300Y-163998400I1000000J0D01*
G01*
X95519300Y-177998400D02*
X83519300Y-177998400D01*
X96519300Y-176998400D02*
G75*
G02*
X95519300Y-177998400I-1000000J0D01*
G01*
X83519300Y-177998400D02*
G75*
G02*
X82519300Y-176998400I0J1000000D01*
G01*
X83519300Y-163998400D02*
X95519300Y-163998400D01*
X95519300Y-163998400D02*
G75*
G02*
X96519300Y-164998400I0J-1000000D01*
G01*
X82519300Y-176998400D02*
X82519300Y-164998400D01*
X120329300Y-164998400D02*
X120329300Y-176998400D01*
X106329300Y-164998400D02*
G75*
G02*
X107329300Y-163998400I1000000J0D01*
G01*
X119329300Y-177998400D02*
X107329300Y-177998400D01*
X120329300Y-176998400D02*
G75*
G02*
X119329300Y-177998400I-1000000J0D01*
G01*
X107329300Y-177998400D02*
G75*
G02*
X106329300Y-176998400I0J1000000D01*
G01*
X107329300Y-163998400D02*
X119329300Y-163998400D01*
X119329300Y-163998400D02*
G75*
G02*
X120329300Y-164998400I0J-1000000D01*
G01*
X106329300Y-176998400D02*
X106329300Y-164998400D01*
X191769300Y-164998400D02*
X191769300Y-176998400D01*
X177769300Y-164998400D02*
G75*
G02*
X178769300Y-163998400I1000000J0D01*
G01*
X190769300Y-177998400D02*
X178769300Y-177998400D01*
X191769300Y-176998400D02*
G75*
G02*
X190769300Y-177998400I-1000000J0D01*
G01*
X178769300Y-177998400D02*
G75*
G02*
X177769300Y-176998400I0J1000000D01*
G01*
X178769300Y-163998400D02*
X190769300Y-163998400D01*
X190769300Y-163998400D02*
G75*
G02*
X191769300Y-164998400I0J-1000000D01*
G01*
X177769300Y-176998400D02*
X177769300Y-164998400D01*
X263239300Y-164998400D02*
X263239300Y-176998400D01*
X249239300Y-164998400D02*
G75*
G02*
X250239300Y-163998400I1000000J0D01*
G01*
X262239300Y-177998400D02*
X250239300Y-177998400D01*
X263239300Y-176998400D02*
G75*
G02*
X262239300Y-177998400I-1000000J0D01*
G01*
X250239300Y-177998400D02*
G75*
G02*
X249239300Y-176998400I0J1000000D01*
G01*
X250239300Y-163998400D02*
X262239300Y-163998400D01*
X262239300Y-163998400D02*
G75*
G02*
X263239300Y-164998400I0J-1000000D01*
G01*
X249239300Y-176998400D02*
X249239300Y-164998400D01*
X287049300Y-164998400D02*
X287049300Y-176998400D01*
X273049300Y-164998400D02*
G75*
G02*
X274049300Y-163998400I1000000J0D01*
G01*
X286049300Y-177998400D02*
X274049300Y-177998400D01*
X287049300Y-176998400D02*
G75*
G02*
X286049300Y-177998400I-1000000J0D01*
G01*
X274049300Y-177998400D02*
G75*
G02*
X273049300Y-176998400I0J1000000D01*
G01*
X274049300Y-163998400D02*
X286049300Y-163998400D01*
X286049300Y-163998400D02*
G75*
G02*
X287049300Y-164998400I0J-1000000D01*
G01*
X273049300Y-176998400D02*
X273049300Y-164998400D01*
X299216800Y-126898400D02*
G75*
G02*
X300216800Y-125898400I1000000J0D01*
G01*
X331266800Y-106848400D02*
X319266799Y-106848400D01*
X320648050Y-124898400D02*
X320648050Y-121848400D01*
X320648050Y-124898400D02*
G75*
G02*
X319648050Y-125898400I-1000000J0D01*
G01*
X319648050Y-120848400D02*
G75*
G02*
X320648050Y-121848400I0J-1000000D01*
G01*
X319266799Y-120848400D02*
G75*
G02*
X318266799Y-119848400I0J1000000D01*
G01*
X299216800Y-126898400D02*
X299216800Y-138898400D01*
X319266799Y-120848400D02*
X319648050Y-120848400D01*
X334648050Y-129373400D02*
X334648050Y-117373400D01*
X332167637Y-107414244D02*
G75*
G03*
X332858263Y-107957744I900838J434156D01*
G01*
X334148050Y-130239425D02*
G75*
G03*
X333648050Y-131105450I500000J-866025D01*
G01*
X300216800Y-139898400D02*
X301685050Y-139898400D01*
X300216800Y-125898400D02*
X319648050Y-125898400D01*
X333648050Y-140898400D02*
X333648050Y-131105450D01*
X327566004Y-141897090D02*
G75*
G02*
X326566003Y-140897089I0J1000001D01*
G01*
X334648050Y-129373400D02*
G75*
G02*
X334148050Y-130239425I-1000000J0D01*
G01*
X303689997Y-141898388D02*
G75*
G02*
X302685050Y-140898400I-4947J999988D01*
G01*
X333648050Y-140898400D02*
G75*
G02*
X332648050Y-141898400I-1000000J0D01*
G01*
X303689991Y-141897089D02*
X308689994Y-141897089D01*
X309689994Y-140897089D02*
G75*
G02*
X308689994Y-141897089I-1000000J0D01*
G01*
X300216800Y-139898400D02*
G75*
G02*
X299216800Y-138898400I0J1000000D01*
G01*
X332858263Y-107957744D02*
G75*
G02*
X333648050Y-108935400I-210213J-977656D01*
G01*
X318266799Y-107848400D02*
X318266799Y-119848400D01*
X326566003Y-140897089D02*
G75*
G03*
X325566003Y-139897089I-1000000J0D01*
G01*
X334148050Y-116507375D02*
G75*
G02*
X334648050Y-117373400I-500000J-866025D01*
G01*
X310689995Y-139897088D02*
G75*
G03*
X309689994Y-140897089I0J-1000001D01*
G01*
X302685050Y-140898400D02*
G75*
G03*
X301685050Y-139898400I-1000000J0D01*
G01*
X310689995Y-139897088D02*
X325566003Y-139897089D01*
X333648049Y-115641349D02*
G75*
G03*
X334148050Y-116507375I1000001J0D01*
G01*
X327566004Y-141897090D02*
X332648050Y-141898400D01*
X331266800Y-106848401D02*
G75*
G02*
X332167637Y-107414244I0J-999999D01*
G01*
X318266799Y-107848400D02*
G75*
G02*
X319266799Y-106848400I1000000J0D01*
G01*
X302685050Y-140898400D02*
X302685050Y-140898400D01*
X333648050Y-115641349D02*
X333648050Y-108935400D01*
X82673550Y-158948400D02*
G75*
G02*
X83673550Y-159948400I0J-1000000D01*
G01*
X59797549Y-159948400D02*
X59797549Y-159727846D01*
X66797550Y-159948400D02*
G75*
G02*
X67797550Y-158948400I1000000J0D01*
G01*
X59710550Y-144948400D02*
X93141800Y-144948400D01*
X84673550Y-160948400D02*
G75*
G02*
X83673550Y-159948400I0J1000000D01*
G01*
X94141800Y-157948400D02*
G75*
G02*
X93141800Y-158948400I-1000000J0D01*
G01*
X60797549Y-160948399D02*
X65797550Y-160948399D01*
X66797550Y-159948400D02*
G75*
G02*
X65797550Y-160948400I-1000000J0D01*
G01*
X58710550Y-145948399D02*
X58710550Y-157948400D01*
X83673550Y-159948400D02*
X83673550Y-159948400D01*
X59254050Y-158838123D02*
G75*
G02*
X59797550Y-159727846I-456500J-889723D01*
G01*
X94141800Y-145948399D02*
X94141800Y-157948400D01*
X66797550Y-159948400D02*
X66797550Y-159948400D01*
X58710550Y-145948399D02*
G75*
G02*
X59710550Y-144948399I1000000J0D01*
G01*
X90673550Y-159948400D02*
G75*
G02*
X89673550Y-160948400I-1000000J0D01*
G01*
X90673550Y-159948400D02*
G75*
G02*
X91673550Y-158948400I1000000J0D01*
G01*
X67797550Y-158948399D02*
X82673550Y-158948399D01*
X93141800Y-144948399D02*
G75*
G02*
X94141800Y-145948399I0J-1000000D01*
G01*
X90673550Y-159948400D02*
X90673550Y-159948400D01*
X84673550Y-160948399D02*
X89673550Y-160948399D01*
X91673550Y-158948399D02*
X93141800Y-158948399D01*
X60797549Y-160948400D02*
G75*
G02*
X59797549Y-159948400I0J1000000D01*
G01*
X59254050Y-158838123D02*
G75*
G02*
X58710550Y-157948400I456500J889723D01*
G01*
X356079300Y-119848400D02*
G75*
G02*
X355079300Y-120848400I-1000000J0D01*
G01*
X356079300Y-100798400D02*
G75*
G02*
X355079300Y-101798400I-1000000J0D01*
G01*
X160816800Y-138898400D02*
G75*
G02*
X159816800Y-139898400I-1000000J0D01*
G01*
X155054300Y-106848400D02*
G75*
G02*
X156054300Y-107848400I0J-1000000D01*
G01*
X137273050Y-161998400D02*
G75*
G02*
X138273050Y-162998400I0J-1000000D01*
G01*
X284929300Y-88798400D02*
G75*
G02*
X285929300Y-87798400I1000000J0D01*
G01*
X132273050Y-161998400D02*
X137273050Y-161998400D01*
X75379300Y-100798400D02*
X75379300Y-88798400D01*
X307454300Y-120848400D02*
X295454300Y-120848400D01*
X131273050Y-175998400D02*
X131273050Y-162998400D01*
X138273050Y-162998400D02*
X138273050Y-175998400D01*
X100191800Y-158948400D02*
G75*
G02*
X99191800Y-157948400I0J1000000D01*
G01*
X112191800Y-158948400D02*
X100191800Y-158948400D01*
X221729300Y-101798400D02*
X209729300Y-101798400D01*
X131273050Y-162998400D02*
G75*
G02*
X132273050Y-161998400I1000000J0D01*
G01*
X146529300Y-88798400D02*
X146529300Y-100798400D01*
X231254300Y-106848400D02*
G75*
G02*
X232254300Y-107848400I0J-1000000D01*
G01*
X132529300Y-88798400D02*
G75*
G02*
X133529300Y-87798400I1000000J0D01*
G01*
X89379300Y-88798400D02*
X89379300Y-100798400D01*
X128766800Y-125898400D02*
X140766800Y-125898400D01*
X143054300Y-106848400D02*
X155054300Y-106848400D01*
X62091800Y-106848400D02*
X74091800Y-106848400D01*
X140766800Y-125898400D02*
G75*
G02*
X141766800Y-126898400I0J-1000000D01*
G01*
X356079300Y-145948400D02*
X356079300Y-157948400D01*
X127766800Y-126898400D02*
G75*
G02*
X128766800Y-125898400I1000000J0D01*
G01*
X232254300Y-107848400D02*
X232254300Y-119848400D01*
X245541800Y-158948400D02*
X233541800Y-158948400D01*
X355079300Y-139898400D02*
X343079300Y-139898400D01*
X236016800Y-139898400D02*
X224016800Y-139898400D01*
X356079300Y-88798400D02*
X356079300Y-100798400D01*
X137291800Y-145948400D02*
G75*
G02*
X138291800Y-144948400I1000000J0D01*
G01*
X255066800Y-139898400D02*
X243066800Y-139898400D01*
X343079300Y-101798400D02*
G75*
G02*
X342079300Y-100798400I0J1000000D01*
G01*
X137273050Y-176998400D02*
X132273050Y-176998400D01*
X137291800Y-157948400D02*
X137291800Y-145948400D01*
X256066800Y-126898400D02*
X256066800Y-138898400D01*
X337029300Y-145948400D02*
X337029300Y-157948400D01*
X119241800Y-158948400D02*
G75*
G02*
X118241800Y-157948400I0J1000000D01*
G01*
X56329300Y-88798400D02*
G75*
G02*
X57329300Y-87798400I1000000J0D01*
G01*
X335942300Y-102798400D02*
G75*
G02*
X334942300Y-103798400I-1000000J0D01*
G01*
X342079300Y-138898400D02*
X342079300Y-126898400D01*
X231279300Y-175998400D02*
X231279300Y-162998400D01*
X150291799Y-158948400D02*
X138291800Y-158948400D01*
X197916800Y-139898400D02*
X185916800Y-139898400D01*
X203966800Y-138898400D02*
X203966800Y-126898400D01*
X138291800Y-158948400D02*
G75*
G02*
X137291800Y-157948400I0J1000000D01*
G01*
X124004300Y-120848400D02*
G75*
G02*
X123004300Y-119848400I0J1000000D01*
G01*
X76379300Y-87798400D02*
X88379300Y-87798400D01*
X104954300Y-120848400D02*
G75*
G02*
X103954300Y-119848400I0J1000000D01*
G01*
X285929300Y-101798400D02*
G75*
G02*
X284929300Y-100798400I0J1000000D01*
G01*
X243066800Y-139898400D02*
G75*
G02*
X242066800Y-138898400I0J1000000D01*
G01*
X343079300Y-158948400D02*
G75*
G02*
X342079300Y-157948400I0J1000000D01*
G01*
X309835550Y-144948400D02*
G75*
G02*
X310835550Y-145948400I0J-1000000D01*
G01*
X117954300Y-107848400D02*
X117954300Y-119848400D01*
X175391800Y-145948400D02*
G75*
G02*
X176391800Y-144948400I1000000J0D01*
G01*
X342079300Y-100798400D02*
X342079300Y-88798400D01*
X114479299Y-87798400D02*
X126479300Y-87798400D01*
X342079300Y-88798400D02*
G75*
G02*
X343079300Y-87798400I1000000J0D01*
G01*
X75379300Y-88798400D02*
G75*
G02*
X76379300Y-87798400I1000000J0D01*
G01*
X238304300Y-120848400D02*
G75*
G02*
X237304300Y-119848400I0J1000000D01*
G01*
X126479300Y-87798400D02*
G75*
G02*
X127479300Y-88798400I0J-1000000D01*
G01*
X243066800Y-125898400D02*
X255066800Y-125898400D01*
X133529300Y-87798400D02*
X145529300Y-87798400D01*
X175391800Y-157948400D02*
X175391800Y-145948400D01*
X132241800Y-145948400D02*
X132241800Y-157948400D01*
X311066300Y-103798400D02*
X306066300Y-103798400D01*
X145529300Y-87798400D02*
G75*
G02*
X146529300Y-88798400I0J-1000000D01*
G01*
X145529300Y-101798400D02*
X133529300Y-101798400D01*
X127479300Y-100798400D02*
G75*
G02*
X126479300Y-101798400I-1000000J0D01*
G01*
X326504300Y-87798400D02*
G75*
G02*
X327370325Y-88298400I0J-1000000D01*
G01*
X327942300Y-101798400D02*
G75*
G02*
X328942300Y-102798400I0J-1000000D01*
G01*
X305066300Y-89798400D02*
G75*
G02*
X306066300Y-88798400I1000000J0D01*
G01*
X355079300Y-144948400D02*
G75*
G02*
X356079300Y-145948400I0J-1000000D01*
G01*
X223016800Y-138898400D02*
X223016800Y-126898400D01*
X237279300Y-176998400D02*
X232279300Y-176998400D01*
X216966800Y-139898400D02*
X204966800Y-139898400D01*
X185916800Y-125898400D02*
X197916800Y-125898400D01*
X127479299Y-88798400D02*
X127479300Y-100798400D01*
X126479300Y-101798400D02*
X114479299Y-101798400D01*
X119241800Y-144948400D02*
X131241800Y-144948400D01*
X296835550Y-157948400D02*
X296835550Y-145948400D01*
X296835550Y-145948400D02*
G75*
G02*
X297835550Y-144948400I1000000J0D01*
G01*
X342079300Y-126898400D02*
G75*
G02*
X343079300Y-125898400I1000000J0D01*
G01*
X70329299Y-88798400D02*
X70329300Y-100798400D01*
X281166800Y-139898400D02*
G75*
G02*
X280166800Y-138898400I0J1000000D01*
G01*
X103954300Y-107848400D02*
G75*
G02*
X104954300Y-106848400I1000000J0D01*
G01*
X219254300Y-106848400D02*
X231254300Y-106848400D01*
X208441800Y-157948400D02*
G75*
G02*
X207441800Y-158948400I-1000000J0D01*
G01*
X76473050Y-139898400D02*
X59710550Y-139898400D01*
X123004300Y-107848400D02*
G75*
G02*
X124004300Y-106848400I1000000J0D01*
G01*
X147816800Y-139898400D02*
G75*
G02*
X146816800Y-138898400I0J1000000D01*
G01*
X257354300Y-120848400D02*
G75*
G02*
X256354300Y-119848400I0J1000000D01*
G01*
X122716800Y-138898400D02*
G75*
G02*
X121716800Y-139898400I-1000000J0D01*
G01*
X142054300Y-107848400D02*
G75*
G02*
X143054300Y-106848400I1000000J0D01*
G01*
X159816800Y-125898400D02*
G75*
G02*
X160816800Y-126898400I0J-1000000D01*
G01*
X251304300Y-119848400D02*
G75*
G02*
X250304300Y-120848400I-1000000J0D01*
G01*
X274116800Y-139898400D02*
X262116800Y-139898400D01*
X100191800Y-144948400D02*
X112191800Y-144948400D01*
X85904300Y-120848400D02*
G75*
G02*
X84904300Y-119848400I0J1000000D01*
G01*
X308454300Y-119848400D02*
G75*
G02*
X307454300Y-120848400I-1000000J0D01*
G01*
X214491800Y-144948400D02*
X226491800Y-144948400D01*
X262116800Y-125898400D02*
X274116800Y-125898400D01*
X75091800Y-119848400D02*
G75*
G02*
X74091800Y-120848400I-1000000J0D01*
G01*
X193154300Y-106848400D02*
G75*
G02*
X194154300Y-107848400I0J-1000000D01*
G01*
X108716800Y-138898400D02*
X108716800Y-126898400D01*
X256354300Y-119848400D02*
X256354300Y-107848400D01*
X227779300Y-88798400D02*
G75*
G02*
X228779300Y-87798400I1000000J0D01*
G01*
X250304300Y-106848400D02*
G75*
G02*
X251304300Y-107848400I0J-1000000D01*
G01*
X61091800Y-107848400D02*
G75*
G02*
X62091800Y-106848400I1000000J0D01*
G01*
X109716800Y-139898400D02*
G75*
G02*
X108716800Y-138898400I0J1000000D01*
G01*
X89379300Y-100798400D02*
G75*
G02*
X88379300Y-101798400I-1000000J0D01*
G01*
X151579300Y-100798400D02*
X151579300Y-88798400D01*
X88379300Y-101798400D02*
X76379300Y-101798400D01*
X190679300Y-101798400D02*
G75*
G02*
X189679300Y-100798400I0J1000000D01*
G01*
X281166800Y-125898400D02*
X293166800Y-125898400D01*
X323029300Y-176998400D02*
X323029300Y-164998400D01*
X260829300Y-88798400D02*
X260829300Y-100798400D01*
X208441800Y-145948400D02*
X208441800Y-157948400D01*
X121716800Y-139898400D02*
X109716800Y-139898400D01*
X209729300Y-101798400D02*
G75*
G02*
X208729300Y-100798400I0J1000000D01*
G01*
X279879300Y-88798400D02*
X279879300Y-100798400D01*
X183629299Y-87798400D02*
G75*
G02*
X184629299Y-88798400I0J-1000000D01*
G01*
X269354300Y-106848400D02*
G75*
G02*
X270354300Y-107848400I0J-1000000D01*
G01*
X316979300Y-177998400D02*
X304979300Y-177998400D01*
X237304300Y-119848400D02*
X237304300Y-107848400D01*
X95429300Y-101798400D02*
G75*
G02*
X94429300Y-100798400I0J1000000D01*
G01*
X297929300Y-87798400D02*
G75*
G02*
X298929300Y-88798400I0J-1000000D01*
G01*
X141766800Y-126898400D02*
X141766800Y-138898400D01*
X232254300Y-119848400D02*
G75*
G02*
X231254300Y-120848400I-1000000J0D01*
G01*
X227491800Y-157948400D02*
G75*
G02*
X226491800Y-158948400I-1000000J0D01*
G01*
X232541800Y-157948400D02*
X232541800Y-145948400D01*
X169341800Y-144948400D02*
G75*
G02*
X170341800Y-145948400I0J-1000000D01*
G01*
X270641800Y-145948400D02*
G75*
G02*
X271641800Y-144948400I1000000J0D01*
G01*
X76379300Y-101798400D02*
G75*
G02*
X75379300Y-100798400I0J1000000D01*
G01*
X270641800Y-157948400D02*
X270641800Y-145948400D01*
X189391800Y-157948400D02*
G75*
G02*
X188391800Y-158948400I-1000000J0D01*
G01*
X227491800Y-145948400D02*
X227491800Y-157948400D01*
X132273050Y-176998400D02*
G75*
G02*
X131273050Y-175998400I0J1000000D01*
G01*
X62091800Y-120848400D02*
G75*
G02*
X61091800Y-119848400I0J1000000D01*
G01*
X342079300Y-107848400D02*
G75*
G02*
X343079300Y-106848400I1000000J0D01*
G01*
X137004300Y-119848400D02*
G75*
G02*
X136004300Y-120848400I-1000000J0D01*
G01*
X342079300Y-164998400D02*
G75*
G02*
X343079300Y-163998400I1000000J0D01*
G01*
X336029300Y-163998400D02*
G75*
G02*
X337029300Y-164998400I0J-1000000D01*
G01*
X99191800Y-157948400D02*
X99191800Y-145948400D01*
X156341800Y-157948400D02*
X156341800Y-145948400D01*
X240779300Y-101798400D02*
X228779300Y-101798400D01*
X188391800Y-144948400D02*
G75*
G02*
X189391800Y-145948400I0J-1000000D01*
G01*
X203679300Y-100798400D02*
G75*
G02*
X202679300Y-101798400I-1000000J0D01*
G01*
X251591800Y-157948400D02*
X251591800Y-145948400D01*
X264591800Y-158948400D02*
X252591800Y-158948400D01*
X356079300Y-176998400D02*
G75*
G02*
X355079300Y-177998400I-1000000J0D01*
G01*
X275116800Y-126898400D02*
X275116800Y-138898400D01*
X232541800Y-145948400D02*
G75*
G02*
X233541800Y-144948400I1000000J0D01*
G01*
X307454300Y-106848400D02*
G75*
G02*
X308454300Y-107848400I0J-1000000D01*
G01*
X58710550Y-126898400D02*
G75*
G02*
X59710550Y-125898400I1000000J0D01*
G01*
X157341800Y-144948400D02*
X169341800Y-144948400D01*
X336029300Y-177998400D02*
X324029300Y-177998400D01*
X342079300Y-119848400D02*
X342079300Y-107848400D01*
X250304300Y-120848400D02*
X238304300Y-120848400D01*
X257354300Y-106848400D02*
X269354300Y-106848400D01*
X136004300Y-120848400D02*
X124004300Y-120848400D01*
X275116800Y-138898400D02*
G75*
G02*
X274116800Y-139898400I-1000000J0D01*
G01*
X156054300Y-107848400D02*
X156054300Y-119848400D01*
X138273050Y-175998400D02*
G75*
G02*
X137273050Y-176998400I-1000000J0D01*
G01*
X212204300Y-120848400D02*
X200204300Y-120848400D01*
X165866800Y-138898400D02*
X165866800Y-126898400D01*
X280166800Y-138898400D02*
X280166800Y-126898400D01*
X95429300Y-87798400D02*
X107429300Y-87798400D01*
X222729300Y-88798400D02*
X222729300Y-100798400D01*
X271641800Y-158948400D02*
G75*
G02*
X270641800Y-157948400I0J1000000D01*
G01*
X107429300Y-87798400D02*
G75*
G02*
X108429300Y-88798400I0J-1000000D01*
G01*
X293166800Y-125898400D02*
G75*
G02*
X294166800Y-126898400I0J-1000000D01*
G01*
X179866800Y-138898400D02*
G75*
G02*
X178866800Y-139898400I-1000000J0D01*
G01*
X246541800Y-145948400D02*
X246541800Y-157948400D01*
X303979300Y-164998400D02*
G75*
G02*
X304979300Y-163998400I1000000J0D01*
G01*
X165579300Y-88798400D02*
X165579300Y-100798400D01*
X61091800Y-119848400D02*
X61091800Y-107848400D01*
X256354300Y-107848400D02*
G75*
G02*
X257354300Y-106848400I1000000J0D01*
G01*
X213491800Y-157948400D02*
X213491800Y-145948400D01*
X194441800Y-145948400D02*
G75*
G02*
X195441800Y-144948400I1000000J0D01*
G01*
X146816800Y-126898400D02*
G75*
G02*
X147816800Y-125898400I1000000J0D01*
G01*
X233541800Y-158948400D02*
G75*
G02*
X232541800Y-157948400I0J1000000D01*
G01*
X176391800Y-144948400D02*
X188391800Y-144948400D01*
X209729300Y-87798400D02*
X221729300Y-87798400D01*
X127766800Y-138898400D02*
X127766800Y-126898400D01*
X194154300Y-119848400D02*
G75*
G02*
X193154300Y-120848400I-1000000J0D01*
G01*
X356079300Y-164998400D02*
X356079300Y-176998400D01*
X178866800Y-139898400D02*
X166866800Y-139898400D01*
X102666800Y-139898400D02*
X90666800Y-139898400D01*
X356079300Y-107848400D02*
X356079300Y-119848400D01*
X94429300Y-88798400D02*
G75*
G02*
X95429300Y-87798400I1000000J0D01*
G01*
X113191800Y-145948400D02*
X113191800Y-157948400D01*
X355079300Y-106848400D02*
G75*
G02*
X356079300Y-107848400I0J-1000000D01*
G01*
X156341800Y-145948400D02*
G75*
G02*
X157341800Y-144948400I1000000J0D01*
G01*
X98904300Y-119848400D02*
G75*
G02*
X97904300Y-120848400I-1000000J0D01*
G01*
X228779300Y-101798400D02*
G75*
G02*
X227779300Y-100798400I0J1000000D01*
G01*
X246541800Y-157948400D02*
G75*
G02*
X245541800Y-158948400I-1000000J0D01*
G01*
X170341800Y-145948400D02*
X170341800Y-157948400D01*
X259829300Y-87798400D02*
G75*
G02*
X260829300Y-88798400I0J-1000000D01*
G01*
X304979300Y-177998400D02*
G75*
G02*
X303979300Y-176998400I0J1000000D01*
G01*
X102666800Y-125898400D02*
G75*
G02*
X103666800Y-126898400I0J-1000000D01*
G01*
X103666800Y-138898400D02*
G75*
G02*
X102666800Y-139898400I-1000000J0D01*
G01*
X343079300Y-177998400D02*
G75*
G02*
X342079300Y-176998400I0J1000000D01*
G01*
X74091800Y-120848400D02*
X62091800Y-120848400D01*
X140766800Y-139898400D02*
X128766800Y-139898400D01*
X343079300Y-163998400D02*
X355079300Y-163998400D01*
X109716800Y-125898400D02*
X121716800Y-125898400D01*
X77473050Y-126898400D02*
X77473050Y-138898400D01*
X165866800Y-126898400D02*
G75*
G02*
X166866800Y-125898400I1000000J0D01*
G01*
X162104300Y-106848400D02*
X174104300Y-106848400D01*
X85904300Y-106848400D02*
X97904300Y-106848400D01*
X89666800Y-126898400D02*
G75*
G02*
X90666800Y-125898400I1000000J0D01*
G01*
X199204300Y-107848400D02*
G75*
G02*
X200204300Y-106848400I1000000J0D01*
G01*
X112191800Y-144948400D02*
G75*
G02*
X113191800Y-145948400I0J-1000000D01*
G01*
X84904300Y-107848400D02*
G75*
G02*
X85904300Y-106848400I1000000J0D01*
G01*
X285929300Y-87798400D02*
X297929300Y-87798400D01*
X226491800Y-158948400D02*
X214491800Y-158948400D01*
X174104300Y-120848400D02*
X162104300Y-120848400D01*
X113191800Y-157948400D02*
G75*
G02*
X112191800Y-158948400I-1000000J0D01*
G01*
X337029300Y-164998400D02*
X337029300Y-176998400D01*
X189679300Y-88798400D02*
G75*
G02*
X190679300Y-87798400I1000000J0D01*
G01*
X189391800Y-145948400D02*
X189391800Y-157948400D01*
X245541800Y-144948400D02*
G75*
G02*
X246541800Y-145948400I0J-1000000D01*
G01*
X59710550Y-125898400D02*
X76473050Y-125898400D01*
X298929300Y-88798400D02*
X298929300Y-100798400D01*
X293166800Y-139898400D02*
X281166800Y-139898400D01*
X157341800Y-158948400D02*
G75*
G02*
X156341800Y-157948400I0J1000000D01*
G01*
X174104300Y-106848400D02*
G75*
G02*
X175104300Y-107848400I0J-1000000D01*
G01*
X108716800Y-126898400D02*
G75*
G02*
X109716800Y-125898400I1000000J0D01*
G01*
X179866800Y-126898400D02*
X179866800Y-138898400D01*
X77473050Y-138898400D02*
G75*
G02*
X76473050Y-139898400I-1000000J0D01*
G01*
X200204300Y-120848400D02*
G75*
G02*
X199204300Y-119848400I0J1000000D01*
G01*
X213491800Y-145948400D02*
G75*
G02*
X214491800Y-144948400I1000000J0D01*
G01*
X219254300Y-120848400D02*
G75*
G02*
X218254300Y-119848400I0J1000000D01*
G01*
X278879300Y-87798400D02*
G75*
G02*
X279879300Y-88798400I0J-1000000D01*
G01*
X74091800Y-106848400D02*
G75*
G02*
X75091800Y-107848400I0J-1000000D01*
G01*
X190679300Y-87798400D02*
X202679300Y-87798400D01*
X89666800Y-138898400D02*
X89666800Y-126898400D01*
X317979300Y-164998400D02*
X317979300Y-176998400D01*
X238304300Y-106848400D02*
X250304300Y-106848400D01*
X84904300Y-119848400D02*
X84904300Y-107848400D01*
X195441800Y-158948400D02*
G75*
G02*
X194441800Y-157948400I0J1000000D01*
G01*
X262116800Y-139898400D02*
G75*
G02*
X261116800Y-138898400I0J1000000D01*
G01*
X233541800Y-144948400D02*
X245541800Y-144948400D01*
X270354300Y-119848400D02*
G75*
G02*
X269354300Y-120848400I-1000000J0D01*
G01*
X98904300Y-107848400D02*
X98904300Y-119848400D01*
X280166800Y-126898400D02*
G75*
G02*
X281166800Y-125898400I1000000J0D01*
G01*
X123004300Y-119848400D02*
X123004300Y-107848400D01*
X189679300Y-100798400D02*
X189679300Y-88798400D01*
X294454300Y-107848400D02*
G75*
G02*
X295454300Y-106848400I1000000J0D01*
G01*
X261116800Y-138898400D02*
X261116800Y-126898400D01*
X226491800Y-144948400D02*
G75*
G02*
X227491800Y-145948400I0J-1000000D01*
G01*
X241779300Y-88798400D02*
X241779300Y-100798400D01*
X317979300Y-176998400D02*
G75*
G02*
X316979300Y-177998400I-1000000J0D01*
G01*
X259829300Y-101798400D02*
X247829300Y-101798400D01*
X265591800Y-157948400D02*
G75*
G02*
X264591800Y-158948400I-1000000J0D01*
G01*
X107429300Y-101798400D02*
X95429300Y-101798400D01*
X207441800Y-144948400D02*
G75*
G02*
X208441800Y-145948400I0J-1000000D01*
G01*
X283641800Y-158948400D02*
X271641800Y-158948400D01*
X252591800Y-158948400D02*
G75*
G02*
X251591800Y-157948400I0J1000000D01*
G01*
X294166800Y-126898400D02*
X294166800Y-138898400D01*
X208729300Y-88798400D02*
G75*
G02*
X209729300Y-87798400I1000000J0D01*
G01*
X247829300Y-101798400D02*
G75*
G02*
X246829300Y-100798400I0J1000000D01*
G01*
X103666800Y-126898400D02*
X103666800Y-138898400D01*
X169341800Y-158948400D02*
X157341800Y-158948400D01*
X269354300Y-120848400D02*
X257354300Y-120848400D01*
X284641800Y-157948400D02*
G75*
G02*
X283641800Y-158948400I-1000000J0D01*
G01*
X161104300Y-107848400D02*
G75*
G02*
X162104300Y-106848400I1000000J0D01*
G01*
X108429300Y-88798400D02*
X108429300Y-100798400D01*
X136004300Y-106848400D02*
G75*
G02*
X137004300Y-107848400I0J-1000000D01*
G01*
X208729300Y-100798400D02*
X208729300Y-88798400D01*
X178866800Y-125898400D02*
G75*
G02*
X179866800Y-126898400I0J-1000000D01*
G01*
X343079300Y-106848400D02*
X355079300Y-106848400D01*
X294454300Y-119848400D02*
X294454300Y-107848400D01*
X97904300Y-106848400D02*
G75*
G02*
X98904300Y-107848400I0J-1000000D01*
G01*
X199204300Y-119848400D02*
X199204300Y-107848400D01*
X270354300Y-107848400D02*
X270354300Y-119848400D01*
X170341800Y-157948400D02*
G75*
G02*
X169341800Y-158948400I-1000000J0D01*
G01*
X75091800Y-107848400D02*
X75091800Y-119848400D01*
X246829300Y-88798400D02*
G75*
G02*
X247829300Y-87798400I1000000J0D01*
G01*
X166866800Y-125898400D02*
X178866800Y-125898400D01*
X203679300Y-88798400D02*
X203679300Y-100798400D01*
X146816800Y-138898400D02*
X146816800Y-126898400D01*
X124004300Y-106848400D02*
X136004300Y-106848400D01*
X181154300Y-120848400D02*
G75*
G02*
X180154300Y-119848400I0J1000000D01*
G01*
X227779300Y-100798400D02*
X227779300Y-88798400D01*
X76473050Y-125898400D02*
G75*
G02*
X77473050Y-126898400I0J-1000000D01*
G01*
X152579300Y-87798400D02*
X164579300Y-87798400D01*
X212204300Y-106848400D02*
G75*
G02*
X213204300Y-107848400I0J-1000000D01*
G01*
X90666800Y-125898400D02*
X102666800Y-125898400D01*
X99191800Y-145948400D02*
G75*
G02*
X100191800Y-144948400I1000000J0D01*
G01*
X161104300Y-119848400D02*
X161104300Y-107848400D01*
X121716800Y-125898400D02*
G75*
G02*
X122716800Y-126898400I0J-1000000D01*
G01*
X241779300Y-100798400D02*
G75*
G02*
X240779300Y-101798400I-1000000J0D01*
G01*
X240779300Y-87798400D02*
G75*
G02*
X241779300Y-88798400I0J-1000000D01*
G01*
X151579300Y-88798400D02*
G75*
G02*
X152579300Y-87798400I1000000J0D01*
G01*
X176391800Y-158948400D02*
G75*
G02*
X175391800Y-157948400I0J1000000D01*
G01*
X108429300Y-100798400D02*
G75*
G02*
X107429300Y-101798400I-1000000J0D01*
G01*
X213204300Y-119848400D02*
G75*
G02*
X212204300Y-120848400I-1000000J0D01*
G01*
X261116800Y-126898400D02*
G75*
G02*
X262116800Y-125898400I1000000J0D01*
G01*
X295454300Y-120848400D02*
G75*
G02*
X294454300Y-119848400I0J1000000D01*
G01*
X343079300Y-120848400D02*
G75*
G02*
X342079300Y-119848400I0J1000000D01*
G01*
X166866800Y-139898400D02*
G75*
G02*
X165866800Y-138898400I0J1000000D01*
G01*
X218254300Y-119848400D02*
X218254300Y-107848400D01*
X284641800Y-145948400D02*
X284641800Y-157948400D01*
X164579300Y-101798400D02*
X152579300Y-101798400D01*
X304979300Y-163998400D02*
X316979300Y-163998400D01*
X355079300Y-177998400D02*
X343079300Y-177998400D01*
X252591800Y-144948400D02*
X264591800Y-144948400D01*
X159816800Y-139898400D02*
X147816800Y-139898400D01*
X122716800Y-126898400D02*
X122716800Y-138898400D01*
X180154300Y-119848400D02*
X180154300Y-107848400D01*
X195441800Y-144948400D02*
X207441800Y-144948400D01*
X294166800Y-138898400D02*
G75*
G02*
X293166800Y-139898400I-1000000J0D01*
G01*
X160816800Y-126898400D02*
X160816800Y-138898400D01*
X247829300Y-87798400D02*
X259829300Y-87798400D01*
X324029300Y-163998400D02*
X336029300Y-163998400D01*
X207441800Y-158948400D02*
X195441800Y-158948400D01*
X155054300Y-120848400D02*
X143054300Y-120848400D01*
X165579300Y-100798400D02*
G75*
G02*
X164579300Y-101798400I-1000000J0D01*
G01*
X295454300Y-106848400D02*
X307454300Y-106848400D01*
X188391800Y-158948400D02*
X176391800Y-158948400D01*
X175104300Y-107848400D02*
X175104300Y-119848400D01*
X308454300Y-107848400D02*
X308454300Y-119848400D01*
X152579300Y-101798400D02*
G75*
G02*
X151579300Y-100798400I0J1000000D01*
G01*
X355079300Y-163998400D02*
G75*
G02*
X356079300Y-164998400I0J-1000000D01*
G01*
X202679300Y-87798400D02*
G75*
G02*
X203679300Y-88798400I0J-1000000D01*
G01*
X58710550Y-138898400D02*
X58710550Y-126898400D01*
X59710550Y-139898400D02*
G75*
G02*
X58710550Y-138898400I0J1000000D01*
G01*
X132529300Y-100798400D02*
X132529300Y-88798400D01*
X180154300Y-107848400D02*
G75*
G02*
X181154300Y-106848400I1000000J0D01*
G01*
X275404300Y-119848400D02*
X275404300Y-107848400D01*
X133529300Y-101798400D02*
G75*
G02*
X132529300Y-100798400I0J1000000D01*
G01*
X69329300Y-101798400D02*
X57329300Y-101798400D01*
X276404300Y-120848400D02*
G75*
G02*
X275404300Y-119848400I0J1000000D01*
G01*
X342079300Y-157948400D02*
X342079300Y-145948400D01*
X138291800Y-144948400D02*
X150291799Y-144948400D01*
X231279300Y-162998400D02*
G75*
G02*
X232279300Y-161998400I1000000J0D01*
G01*
X310835550Y-145948400D02*
X310835550Y-157948400D01*
X198916800Y-138898400D02*
G75*
G02*
X197916800Y-139898400I-1000000J0D01*
G01*
X113479299Y-88798400D02*
G75*
G02*
X114479299Y-87798400I1000000J0D01*
G01*
X237304300Y-107848400D02*
G75*
G02*
X238304300Y-106848400I1000000J0D01*
G01*
X69329300Y-87798401D02*
G75*
G02*
X70329299Y-88798400I0J-999999D01*
G01*
X312066300Y-102798400D02*
G75*
G02*
X313066300Y-101798400I1000000J0D01*
G01*
X194154300Y-107848400D02*
X194154300Y-119848400D01*
X355079300Y-125898400D02*
G75*
G02*
X356079300Y-126898400I0J-1000000D01*
G01*
X310835550Y-157948400D02*
G75*
G02*
X309835550Y-158948400I-1000000J0D01*
G01*
X306066300Y-88798400D02*
X312772249Y-88798400D01*
X305066300Y-102798400D02*
X305066300Y-89798400D01*
X313638275Y-88298400D02*
G75*
G02*
X314504300Y-87798400I866025J-500000D01*
G01*
X197916800Y-125898400D02*
G75*
G02*
X198916800Y-126898400I0J-1000000D01*
G01*
X143054300Y-120848400D02*
G75*
G02*
X142054300Y-119848400I0J1000000D01*
G01*
X323029300Y-157948400D02*
X323029300Y-145948400D01*
X336029300Y-158948400D02*
X324029300Y-158948400D01*
X150291799Y-144948400D02*
G75*
G02*
X151291799Y-145948400I0J-1000000D01*
G01*
X343079300Y-125898400D02*
X355079300Y-125898400D01*
X271641800Y-144948400D02*
X283641800Y-144948400D01*
X298929300Y-100798400D02*
G75*
G02*
X297929300Y-101798400I-1000000J0D01*
G01*
X116954300Y-106848400D02*
G75*
G02*
X117954300Y-107848400I0J-1000000D01*
G01*
X231254300Y-120848400D02*
X219254300Y-120848400D01*
X224016800Y-139898400D02*
G75*
G02*
X223016800Y-138898400I0J1000000D01*
G01*
X217966800Y-126898400D02*
X217966800Y-138898400D01*
X116954300Y-120848400D02*
X104954300Y-120848400D01*
X288404300Y-120848400D02*
X276404300Y-120848400D01*
X266879300Y-101798400D02*
G75*
G02*
X265879300Y-100798400I0J1000000D01*
G01*
X343079300Y-139898400D02*
G75*
G02*
X342079300Y-138898400I0J1000000D01*
G01*
X265879300Y-88798400D02*
G75*
G02*
X266879300Y-87798400I1000000J0D01*
G01*
X265879300Y-100798400D02*
X265879300Y-88798400D01*
X356079300Y-138898400D02*
G75*
G02*
X355079300Y-139898400I-1000000J0D01*
G01*
X237279300Y-161998400D02*
G75*
G02*
X238279300Y-162998400I0J-1000000D01*
G01*
X297929300Y-101798400D02*
X285929300Y-101798400D01*
X264591800Y-144948400D02*
G75*
G02*
X265591800Y-145948400I0J-1000000D01*
G01*
X314504300Y-87798400D02*
X326504299Y-87798400D01*
X223016800Y-126898400D02*
G75*
G02*
X224016800Y-125898400I1000000J0D01*
G01*
X328236350Y-88798400D02*
X334942300Y-88798400D01*
X324029300Y-158948400D02*
G75*
G02*
X323029300Y-157948400I0J1000000D01*
G01*
X313638274Y-88298400D02*
G75*
G02*
X312772249Y-88798400I-866025J500000D01*
G01*
X312066300Y-102798400D02*
G75*
G02*
X311066300Y-103798400I-1000000J0D01*
G01*
X184629299Y-100798400D02*
G75*
G02*
X183629299Y-101798400I-1000000J0D01*
G01*
X156054300Y-119848400D02*
G75*
G02*
X155054300Y-120848400I-1000000J0D01*
G01*
X104954300Y-106848400D02*
X116954300Y-106848400D01*
X316979300Y-163998400D02*
G75*
G02*
X317979300Y-164998400I0J-1000000D01*
G01*
X118241800Y-145948400D02*
G75*
G02*
X119241800Y-144948400I1000000J0D01*
G01*
X323029300Y-145948400D02*
G75*
G02*
X324029300Y-144948400I1000000J0D01*
G01*
X337029300Y-157948400D02*
G75*
G02*
X336029300Y-158948400I-1000000J0D01*
G01*
X329942300Y-103798400D02*
G75*
G02*
X328942300Y-102798400I0J1000000D01*
G01*
X297835550Y-158948400D02*
G75*
G02*
X296835550Y-157948400I0J1000000D01*
G01*
X260829300Y-100798400D02*
G75*
G02*
X259829300Y-101798400I-1000000J0D01*
G01*
X131241800Y-144948400D02*
G75*
G02*
X132241800Y-145948400I0J-1000000D01*
G01*
X57329300Y-101798400D02*
G75*
G02*
X56329300Y-100798400I0J1000000D01*
G01*
X181154300Y-106848400D02*
X193154300Y-106848400D01*
X274116800Y-125898400D02*
G75*
G02*
X275116800Y-126898400I0J-1000000D01*
G01*
X56329300Y-100798400D02*
X56329300Y-88798400D01*
X171629300Y-87798400D02*
X183629299Y-87798400D01*
X118241800Y-157948400D02*
X118241800Y-145948400D01*
X184629299Y-88798400D02*
X184629299Y-100798400D01*
X204966800Y-139898400D02*
G75*
G02*
X203966800Y-138898400I0J1000000D01*
G01*
X204966800Y-125898400D02*
X216966800Y-125898400D01*
X171629300Y-101798400D02*
G75*
G02*
X170629300Y-100798400I0J1000000D01*
G01*
X70329300Y-100798400D02*
G75*
G02*
X69329300Y-101798400I-1000000J0D01*
G01*
X216966800Y-125898400D02*
G75*
G02*
X217966800Y-126898400I0J-1000000D01*
G01*
X113479300Y-100798400D02*
X113479299Y-88798400D01*
X255066800Y-125898400D02*
G75*
G02*
X256066800Y-126898400I0J-1000000D01*
G01*
X284929300Y-100798400D02*
X284929300Y-88798400D01*
X324029300Y-177998400D02*
G75*
G02*
X323029300Y-176998400I0J1000000D01*
G01*
X57329300Y-87798400D02*
X69329300Y-87798401D01*
X194441800Y-157948400D02*
X194441800Y-145948400D01*
X128766800Y-139898400D02*
G75*
G02*
X127766800Y-138898400I0J1000000D01*
G01*
X97904300Y-120848400D02*
X85904300Y-120848400D01*
X137004300Y-107848400D02*
X137004300Y-119848400D01*
X218254300Y-107848400D02*
G75*
G02*
X219254300Y-106848400I1000000J0D01*
G01*
X355079300Y-120848400D02*
X343079300Y-120848400D01*
X246829300Y-100798400D02*
X246829300Y-88798400D01*
X202679300Y-101798400D02*
X190679300Y-101798400D01*
X175104300Y-119848400D02*
G75*
G02*
X174104300Y-120848400I-1000000J0D01*
G01*
X147816800Y-125898400D02*
X159816800Y-125898400D01*
X200204300Y-106848400D02*
X212204300Y-106848400D01*
X94429300Y-100798400D02*
X94429300Y-88798400D01*
X213204300Y-107848400D02*
X213204300Y-119848400D01*
X228779300Y-87798400D02*
X240779300Y-87798400D01*
X214491800Y-158948400D02*
G75*
G02*
X213491800Y-157948400I0J1000000D01*
G01*
X141766800Y-138898400D02*
G75*
G02*
X140766800Y-139898400I-1000000J0D01*
G01*
X303979300Y-176998400D02*
X303979300Y-164998400D01*
X164579300Y-87798400D02*
G75*
G02*
X165579300Y-88798400I0J-1000000D01*
G01*
X162104300Y-120848400D02*
G75*
G02*
X161104300Y-119848400I0J1000000D01*
G01*
X337029300Y-176998400D02*
G75*
G02*
X336029300Y-177998400I-1000000J0D01*
G01*
X184916800Y-138898400D02*
X184916800Y-126898400D01*
X289404300Y-119848400D02*
G75*
G02*
X288404300Y-120848400I-1000000J0D01*
G01*
X323029300Y-164998400D02*
G75*
G02*
X324029300Y-163998400I1000000J0D01*
G01*
X309835550Y-158948400D02*
X297835550Y-158948400D01*
X334942300Y-88798400D02*
G75*
G02*
X335942300Y-89798400I0J-1000000D01*
G01*
X335942300Y-89798400D02*
X335942300Y-102798400D01*
X193154300Y-120848400D02*
X181154300Y-120848400D01*
X238279300Y-175998400D02*
G75*
G02*
X237279300Y-176998400I-1000000J0D01*
G01*
X117954300Y-119848400D02*
G75*
G02*
X116954300Y-120848400I-1000000J0D01*
G01*
X278879300Y-101798400D02*
X266879300Y-101798400D01*
X183629299Y-101798400D02*
X171629300Y-101798400D01*
X217966800Y-138898400D02*
G75*
G02*
X216966800Y-139898400I-1000000J0D01*
G01*
X275404300Y-107848400D02*
G75*
G02*
X276404300Y-106848400I1000000J0D01*
G01*
X222729300Y-100798400D02*
G75*
G02*
X221729300Y-101798400I-1000000J0D01*
G01*
X88379300Y-87798400D02*
G75*
G02*
X89379300Y-88798400I0J-1000000D01*
G01*
X355079300Y-87798400D02*
G75*
G02*
X356079300Y-88798400I0J-1000000D01*
G01*
X289404300Y-107848400D02*
X289404300Y-119848400D01*
X242066800Y-126898400D02*
G75*
G02*
X243066800Y-125898400I1000000J0D01*
G01*
X297835550Y-144948400D02*
X309835550Y-144948400D01*
X232279300Y-161998400D02*
X237279300Y-161998400D01*
X103954300Y-119848400D02*
X103954300Y-107848400D01*
X203966800Y-126898400D02*
G75*
G02*
X204966800Y-125898400I1000000J0D01*
G01*
X170629300Y-100798400D02*
X170629300Y-88798400D01*
X146529300Y-100798400D02*
G75*
G02*
X145529300Y-101798400I-1000000J0D01*
G01*
X114479299Y-101798400D02*
G75*
G02*
X113479299Y-100798400I0J1000000D01*
G01*
X283641800Y-144948400D02*
G75*
G02*
X284641800Y-145948400I0J-1000000D01*
G01*
X224016800Y-125898400D02*
X236016800Y-125898400D01*
X251304300Y-107848400D02*
X251304300Y-119848400D01*
X356079300Y-157948400D02*
G75*
G02*
X355079300Y-158948400I-1000000J0D01*
G01*
X151291799Y-157948400D02*
G75*
G02*
X150291799Y-158948400I-1000000J0D01*
G01*
X265591800Y-145948400D02*
X265591800Y-157948400D01*
X328236350Y-88798400D02*
G75*
G02*
X327370325Y-88298400I0J1000000D01*
G01*
X132241800Y-157948400D02*
G75*
G02*
X131241800Y-158948400I-1000000J0D01*
G01*
X221729300Y-87798400D02*
G75*
G02*
X222729300Y-88798400I0J-1000000D01*
G01*
X90666800Y-139898400D02*
G75*
G02*
X89666800Y-138898400I0J1000000D01*
G01*
X306066300Y-103798400D02*
G75*
G02*
X305066300Y-102798400I0J1000000D01*
G01*
X232279300Y-176998400D02*
G75*
G02*
X231279300Y-175998400I0J1000000D01*
G01*
X256066800Y-138898400D02*
G75*
G02*
X255066800Y-139898400I-1000000J0D01*
G01*
X266879300Y-87798400D02*
X278879300Y-87798400D01*
X356079300Y-126898400D02*
X356079300Y-138898400D01*
X242066800Y-138898400D02*
X242066800Y-126898400D01*
X142054300Y-119848400D02*
X142054300Y-107848400D01*
X170629300Y-88798400D02*
G75*
G02*
X171629300Y-87798400I1000000J0D01*
G01*
X237016800Y-138898400D02*
G75*
G02*
X236016800Y-139898400I-1000000J0D01*
G01*
X276404300Y-106848400D02*
X288404300Y-106848400D01*
X342079300Y-176998400D02*
X342079300Y-164998400D01*
X355079300Y-158948400D02*
X343079300Y-158948400D01*
X251591800Y-145948400D02*
G75*
G02*
X252591800Y-144948400I1000000J0D01*
G01*
X238279300Y-162998400D02*
X238279300Y-175998400D01*
X343079300Y-87798400D02*
X355079300Y-87798400D01*
X355079300Y-101798400D02*
X343079300Y-101798400D01*
X327942300Y-101798400D02*
X313066300Y-101798400D01*
X185916800Y-139898400D02*
G75*
G02*
X184916800Y-138898400I0J1000000D01*
G01*
X184916800Y-126898400D02*
G75*
G02*
X185916800Y-125898400I1000000J0D01*
G01*
X324029300Y-144948400D02*
X336029300Y-144948400D01*
X334942300Y-103798400D02*
X329942300Y-103798400D01*
X151291800Y-145948400D02*
X151291799Y-157948400D01*
X131241800Y-158948400D02*
X119241800Y-158948400D01*
X342079300Y-145948400D02*
G75*
G02*
X343079300Y-144948400I1000000J0D01*
G01*
X343079300Y-144948400D02*
X355079300Y-144948400D01*
X288404300Y-106848400D02*
G75*
G02*
X289404300Y-107848400I0J-1000000D01*
G01*
X279879300Y-100798400D02*
G75*
G02*
X278879300Y-101798400I-1000000J0D01*
G01*
X198916800Y-126898400D02*
X198916800Y-138898400D01*
X237016800Y-126898400D02*
X237016800Y-138898400D01*
X336029300Y-144948400D02*
G75*
G02*
X337029300Y-145948400I0J-1000000D01*
G01*
X236016800Y-125898400D02*
G75*
G02*
X237016800Y-126898400I0J-1000000D01*
G01*
D11*
X355353250Y-180502219D02*
X57076441Y-180502219D01*
X358660309Y-88551809D02*
X358660309Y-177195160D01*
X57073441Y-85244750D02*
X355353250Y-85244750D01*
X53766382Y-177198159D02*
X53766382Y-88551809D01*
X355353250Y-85244750D02*
G75*
G02*
X358660309Y-88551809I0J-3307059D01*
G01*
X358660309Y-177195160D02*
G75*
G02*
X355353250Y-180502219I-3307059J0D01*
G01*
X57076441Y-180502218D02*
G75*
G02*
X53766382Y-177198159I-3000J3307059D01*
G01*
X53766382Y-88551809D02*
G75*
G02*
X57073441Y-85244750I3307059J0D01*
G01*
M02*
